<?xml version="1.0" encoding="UTF-8"?>
<svg version="1.1" viewBox="0 0 2048 1146" width="1280" height="1280" xmlns="http://www.w3.org/2000/svg">
<path transform="translate(0)" d="m0 0h2048v1146h-2048z" fill="#FDFDFD"/>
<path transform="translate(274,162)" d="m0 0h11l3 24 20 1v-18l2-7h11l23 3v8l-2 17 19 4 1-7 5-15 5-1 27 9 2 4-6 15-1 6 17 7 11-20 5 1 21 12 5 5-7 11-4 6v4l11 8 4 2 9-11 3-3 2-4 5 1 22 22-2 4-13 14 2 4 8 9 3 1 17-13 4 1 11 15 7 11-5 5-11 8-3 2 2 5 7 11 20-9 4 1 10 22 2 5v3l-19 9h-4l5 16 1 3 8-1 17-4 2 5 5 25-1 4-9 3-14 3v9l1 10h23l3 2v32l-1 1h-24l-2 11-1 8 14 2 11 3-1 8-5 25-1 1-8-1-18-5-1 7-4 10v2l21 9 1 4-12 26-4 2-17-8-5-1-2 6-5 8 2 4 16 11 1 4-10 13-9 11-4 2-10-8-6-5-4 1-6 7h-2l-1 5 7 8 8 8-1 4-20 18-4 3-4-2-11-14v-2l-5 2-11 8 1 5 10 16-1 3-28 16-5-5-8-15v-2l-17 7-1 4 7 17v3l-14 6-17 6h-3l-5-17-1-7-18 4 1 24-1 1-20 2h-14l-2-23h-19l-1 18-1 5h-9l-26-3 1-13 1-5v-7l-15-3h-3l-7 23-8-1-24-9-2-1 1-5 6-15v-4l-14-6-3 1-10 18-3 2-24-14-6-4 2-4 8-12 3-6-11-8-5-3-2 4-9 11-3 4-4-1-15-14-9-8 1-3 8-7 2-3h2l1-3 3-2-2-4-10-10-9 6-10 8-4-2-11-15-7-11 1-3 17-11h2l-8-16-3-1-19 9-4-1-12-29 1-3 12-5 10-3-5-17v-2l-22 6-4-1-5-24-1-9 5-2 19-4-2-18-25-1-1-2v-30l2-3 26 1v-19l-14-2-10-3 1-10 5-24 3-1 19 5h4l5-17-12-5-10-5-1-3 13-27 4-2 16 8 5 2 7-13 1-4-14-10-5-4 2-5 14-18 4-5 4 1 12 10 4 3h2l6-8 4-4-1-5-14-14 1-4 11-9 13-11 4 2 11 14 3 2 10-8 4-2-2-5-10-17 1-3 26-14h4l8 13 3 6v2l17-8h2l-6-15-2-9 10-4 20-7 4 1 6 20 1 2 12-2 7-1-2-11-1-15 2-1z" fill="#FCFCFC"/>
<path transform="translate(1532,119)" d="m0 0 24 1 27 4 24 6 22 8 24 12 19 12 13 11 11 10v2h2l9 11 10 14 11 21 8 24 3 15-1 208v183l-1 1h-45l-1-1v-352l-55 12-57 13-17 4-1 103v125l1 78 21 6 38 10 1 2h-177v-2l21-5 37-10 3-1v-306l-43-10-87-19v353h-46v-397l8-27 7-16 8-14 12-16 11-12 13-12 18-13 22-12 16-7 24-8 21-5 24-3z" fill="#414568"/>
<path transform="translate(279,254)" d="m0 0h36l20 3 23 6 24 10 19 11 16 12 10 9 16 16 12 16 8 13 8 16 6 14 6 20 4 26v35l-3 21-4 17-7 19-10 21-7 11-8 11-11 12-6 7-8 7-12 10-15 10-16 9-19 8-21 6-14 3-22 2h-14l-21-2-21-4-24-8-19-9-16-10-13-10-12-11-12-12-9-11-10-15-11-21-6-15-7-25-3-20v-35l3-21 7-25 7-17 10-19 9-13 10-13 19-19 17-13 13-8 17-9 21-8 19-5z" fill="#FDFDFD"/>
<path transform="translate(693,264)" d="m0 0h143l31 4 17 4 21 7 16 7 16 9 11 8 10 9 5 4 14 16 12 19 10 21 7 21 3 12 3 21 1 11v38l-3 25-4 20-9 27-10 21-8 12-10 13-8 9-11 9-12 9-15 9-19 9-21 7-23 5-22 3-13 1-35 1h-36l-61-1z" fill="#414568"/>
<path transform="translate(1152,354)" d="m0 0h30l14 1 22 5 20 8 12 7 12 9 14 14 10 14 9 16 5 13 6 22 3 20 1 11v25l-3 26-6 25-5 14-10 19-10 13-15 15-16 11-17 8-16 5-20 4h-46l-15-3-16-5-13-5-15-9-11-9-10-9-12-15-8-14-8-17-7-25-4-29v-29l2-12 3-19 6-21 7-17 10-16 11-12 12-12 10-7 12-7 19-7 22-5z" fill="#414568"/>
<path transform="translate(1869,259)" d="m0 0h45l17 2 20 4 14 4 24 8 13 5 1 4-13 35-7 16-2 1-12-5-31-10-25-5-14-2h-20l-18 4-12 5-11 9-6 9-4 13v15l5 15 7 10 9 8 13 8 16 8 19 9 20 8 26 12 16 9 12 9 10 9 10 10 8 13 5 12 4 15v42l-4 17-5 13-7 11-11 13-9 8-10 7-12 7-13 5-16 5-18 4-8 1h-61l-23-3-27-6-18-6-8-4-1-1v-62l9 3 21 8 25 7 20 4 21 3h35l20-4 12-5 11-8 8-13 3-10v-19l-3-10-6-10-4-5-15-11-10-6-36-16-21-9-20-10-17-10-13-10-7-6-9-11-11-18-5-13-4-19v-29l4-19 7-16 7-11 11-12 8-7 14-9 14-7 18-6 15-3z" fill="#414568"/>
<path transform="translate(759,320)" d="m0 0h64l27 3 18 5 17 7 11 7 10 8 8 8 9 13 8 16 7 23 4 27 1 17v16l-4 30-6 22-6 15-8 14-12 13-9 8-14 9-17 8-14 4-23 4-13 1h-58l-1-4v-273z" fill="#FDFDFD"/>
<path transform="translate(296,317)" d="m0 0 5 5 6 5 7 2 7-1 6-3 6-4 5 12 6 5 4 1h8l8-2 1 1 2 10 5 8 7 3 12 1 1 3-1 3v9l4 8 5 4 11 3 1 2-6 12 2 9 3 5 4 4 6 3-2 4-4 4-3 6v7l4 8 5 5 1 3-9 5-4 5-2 6v8l4 8v3l-13 4-6 7-1 4v7l1 8h-10l-9 3-4 4-3 8-1 9-9-3h-10l-7 4-5 8-2 6-5-3-6-4-8-1-10 4-6 8-4-2-5-6-6-3-8-1-8 3-3 3-4-1-4-8-7-6-3-1h-8l-9 2-1-5-2-8-4-6-6-3-10-1-5-1 2-10-1-8-5-6-6-3-9-2 2-5 3-6v-8l-3-7-5-5-7-4 6-8 4-7v-7l-4-8-5-5v-2l8-5 4-5 2-7-1-9-3-5 1-4 10-3 7-6 2-6v-7l-2-8h10l10-3 5-6 2-5v-9l2-1 9 3h9l6-4 4-5 3-9 5 2 5 4 6 2 10-2 4-3h2l2-4z" fill="#F8F9FA"/>
<path transform="translate(1162,407)" d="m0 0h13l18 3 12 5 11 7 7 7 7 11 6 14 5 22 1 9v10l1 2v20l-3 26-5 19-6 13-7 11-9 8-16 8-11 3-6 1h-21l-18-4-14-7-10-9-8-11-7-15-4-16-2-13-1-12v-26l2-20 4-17 5-13 7-12 8-9 12-8 11-4z" fill="#FDFDFD"/>
<path transform="translate(274,162)" d="m0 0h11l3 24 20 1v-18l2-7h11l23 3v8l-2 17 19 4 1-7 5-15 5-1 27 9 2 4-6 15-1 6 17 7 11-20 5 1 21 12 5 5-7 11-4 6v4l11 8 4 2 9-11 3-3 2-4 5 1 22 22-2 4-13 14 2 4 8 9 3 1 17-13 4 1 11 15 7 11-5 5-11 8-3 2 2 5 7 11 20-9 4 1 10 22 2 5v3l-19 9h-4l5 16 1 3 8-1 17-4 2 5 5 25-1 4-9 3-14 3v9l1 10h23l3 2v32l-1 1h-24l-2 11-1 8 14 2 11 3-1 8-5 25-1 1-8-1-18-5-1 7-4 10v2l21 9 1 4-12 26-4 2-17-8-5-1-2 6-5 8 2 4 16 11 1 4-10 13-9 11-4 2-10-8-6-5-4 1-6 7h-2l-1 5 7 8 8 8-1 4-20 18-4 3-4-2-11-14v-2l-5 2-11 8 1 5 10 16-1 3-28 16-5-5-8-15v-2l-17 7-1 4 7 17v3l-14 6-17 6h-3l-5-17-1-7-18 4 1 24-1 1-20 2h-14l-2-23h-19l-1 18-1 5h-9l-26-3 1-13 1-5v-7l-15-3h-3l-7 23-8-1-24-9-2-1 1-5 6-15v-4l-14-6-3 1-10 18-3 2-24-14-6-4 2-4 8-12 3-6-11-8-5-3-2 4-9 11-3 4-4-1-15-14-9-8 1-3 8-7 2-3h2l1-3 3-2-2-4-10-10-9 6-10 8-4-2-11-15-7-11 1-3 17-11h2l-8-16-3-1-19 9-4-1-12-29 1-3 12-5 10-3-5-17v-2l-22 6-4-1-5-24-1-9 5-2 19-4-2-18-25-1-1-2v-30l2-3 26 1v-19l-14-2-10-3 1-10 5-24 3-1 19 5h4l5-17-12-5-10-5-1-3 13-27 4-2 16 8 5 2 7-13 1-4-14-10-5-4 2-5 14-18 4-5 4 1 12 10 4 3h2l6-8 4-4-1-5-14-14 1-4 11-9 13-11 4 2 11 14 3 2 10-8 4-2-2-5-10-17 1-3 26-14h4l8 13 3 6v2l17-8h2l-6-15-2-9 10-4 20-7 4 1 6 20 1 2 12-2 7-1-2-11-1-15 2-1zm3 5-20 2v10l1 15-27 6-6-22-4-1-20 7-1 3 8 21-6 2-16 8-5 1-2-5-9-16-4 1-19 11 5 9 7 12v3l-4 2-14 10-4 2-9-10-5-7-4 1-13 11-3 2 1 5 4 4h2l2 4 6 6-1 4-7 7-7 8-1 3-7-4-11-9-4-2-12 16-3 5 11 8 7 5h2l-3 8-9 15v2l-10-4-12-6h-3l-10 21 1 3 20 8 1 4-7 22-10-1-15-4-2 10-3 16 9 3 14 3v16l-1 10h-25l-1 1v24l25 1 2 15v12l-22 5-1 2 4 22 4 1 18-4h4l6 20 1 6-10 3-12 5 3 9 6 16 6-2 17-8 3 3 10 18 1 3-5 2-11 8-3 2 1 5 10 14 2 3 6-2 13-10 5 1 14 15 1 4-8 7-4 5-4 4 6 7 10 9 4 2 11-14 4-4 5 2 13 10 4 3-2 5-9 13-1 4 17 10 4 3h2l11-20v-2l10 4 15 7-1 7-6 14 1 3 19 7 5 1 6-22v-2l28 6-1 9-2 11v4l19 2h7l2-23h28l1 23h12l13-1 1-1-1-14-1-10 8-1 12-3 7-1 4 16 2 7 6-1 19-7-1-6-6-16 1-2 23-10 3 3 10 18 12-6 10-6-1-5-8-13-1-5 16-12 3-2 4 1 10 12 4 4 5-5 10-9 3-2-1-4-8-8-5-6 1-5 8-8 6-7 5 1 14 11 3 1 8-11 7-9-4-5-15-10 1-5 6-10 5-8 6 1 15 7h3l7-16 2-3v-4l-21-9 2-10 6-16 9 1 11 3h5l4-20-1-5-22-5v-11l2-15 25-1v-25l-26-1-1-15v-12l23-5 1-2-4-22-5-1-21 5-7-21-1-6 6-2 16-7-1-5-8-18-5 1-16 8-3-1-12-20v-3l18-12-1-5-8-11-4-6-4 1-8 7-7 5-5-2-9-10-5-6 1-4 11-11 2-3-1-4-13-12-3-3h-2l-4 6-10 12-4-1-18-14v-4l10-16v-3l-15-8-6-3-5 8-6 10v2l-9-3-16-7h-2l8-22-1-3-16-5-7-1-4 10-3 12-28-5 3-24-1-1-18-2h-6l-1 3-2 21h-27l-2-13-1-11z" fill="#383868"/>
<path transform="translate(53,961)" d="m0 0h1915v5l-20 1h-1853l-42-1z" fill="#36396B"/>
<path transform="translate(296,317)" d="m0 0 5 5 6 5 7 2 7-1 6-3 6-4 5 12 6 5 4 1h8l8-2 1 1 2 10 5 8 7 3 12 1 1 3-1 3v9l4 8 5 4 11 3 1 2-6 12 2 9 3 5 4 4 6 3-2 4-4 4-3 6v7l4 8 5 5 1 3-9 5-4 5-2 6v8l4 8v3l-13 4-6 7-1 4v7l1 8h-10l-9 3-4 4-3 8-1 9-9-3h-10l-7 4-5 8-2 6-5-3-6-4-8-1-10 4-6 8-4-2-5-6-6-3-8-1-8 3-3 3-4-1-4-8-7-6-3-1h-8l-9 2-1-5-2-8-4-6-6-3-10-1-5-1 2-10-1-8-5-6-6-3-9-2 2-5 3-6v-8l-3-7-5-5-7-4 6-8 4-7v-7l-4-8-5-5v-2l8-5 4-5 2-7-1-9-3-5 1-4 10-3 7-6 2-6v-7l-2-8h10l10-3 5-6 2-5v-9l2-1 9 3h9l6-4 4-5 3-9 5 2 5 4 6 2 10-2 4-3h2l2-4zm-9 18-14 2-16 5-16 8-11 7-13 12-8 9-8 13-7 14-5 16-2 12v22l3 16 6 17 9 17 11 13 4 5 14 11 13 8 18 7 11 3 10 1h21l14-2 19-6 15-8 16-12 9-9 10-14 8-16 5-15 3-16 1-15-3-21-7-19-9-17-14-17-11-9-10-7-19-9-18-5-7-1z" fill="#FDFDFD"/>
<path transform="translate(53,815)" d="m0 0h35l13 3 8 6 5 10 1 6v61l-3 11-6 8-7 4-8 2h-38z" fill="#414568"/>
<path transform="translate(881,814)" d="m0 0 4 1 14 68 1 7 4-15 11-52 2-8h21l2 111-5 1-10-1-1-3-1-67-5 19-10 49-1 2h-12l-2-5-12-58-1-6-1 2-2 67h-15v-44l1-67z" fill="#414569"/>
<path transform="translate(53,962)" d="m0 0h1098l4 2 6-2h6l1 2h16v1l25 1v1h-1114l-42-1z" fill="#353A6E"/>
<path transform="translate(279,254)" d="m0 0h36l20 3 23 6 24 10 19 11 16 12 10 9 16 16 12 16 8 13 8 16 6 14 6 20 4 26v35l-3 21-4 17-7 19-10 21-7 11-8 11-11 12-6 7-8 7-12 10-15 10-16 9-19 8-21 6-14 3-22 2h-14l-21-2-21-4-24-8-19-9-16-10-13-10-12-11-12-12-9-11-10-15-11-21-6-15-7-25-3-20v-35l3-21 7-25 7-17 10-19 9-13 10-13 19-19 17-13 13-8 17-9 21-8 19-5zm1 4-20 3-20 5-21 8-21 11-15 11-13 11-11 11-9 11-10 13-10 18-8 17-6 18-4 19-2 19v23l3 24 6 23 8 20 9 17 8 12 11 13 7 8 12 12 14 11 14 9 21 11 19 7 22 5 17 2h31l18-2 24-6 16-6 19-9 18-12 11-9 10-9 9-9 11-14 10-15 8-16 5-11 5-15 5-22 2-15v-34l-3-20-6-22-8-19-10-19-8-11-7-9-11-12-12-12-16-12-13-8-17-9-25-9-25-5-10-1z" fill="#393A69"/>
<path transform="translate(1794,815)" d="m0 0h19v108l-1 3h-18l-1-3-10 4h-10l-7-4-5-10-1-4-1-25 1-18 2-9 4-6 4-4 6-2 9 1 8 4z" fill="#414669"/>
<path transform="translate(1546,984)" d="m0 0h35l11 3 7 6 4 10v17l-3 9-7 6h-2l8 30 5 17v4h-18l-8-29-5-17-8-1v47h-19z" fill="#414568"/>
<path transform="translate(1200,844)" d="m0 0h3l3 7v3l-12 5 2 8v18l-4 9-7 6-5 2h-19l-1 7 28 4 8 4 4 6 1 3v11l-3 6-5 5-9 3h-22l-12-3-6-5-1-9 5-8 4-4v-2l-5-4-1-2v-8l7-8-2-5-4-7-1-3v-16l3-10 7-8 6-3 13-1 9 3 6 4 8-7z" fill="#414569"/>
<path transform="translate(1308,845)" d="m0 0 9 1 5 4 1 4 14-8 4-1h7l7 4 4 7v70h-17l-1-1-1-65-6-1-6 3h-2l-1 64h-17l-1-65-3-2-6 1-4 2-1 2-1 62h-18v-79l2-1h16v6l12-6z" fill="#414568"/>
<path transform="translate(224,845)" d="m0 0 9 1 6 5 3 5 2 9v42l-2 9-6 8-5 3h-10l-11-5v29h-18l-1-1v-103l6-1h12l1 5 10-5z" fill="#41466A"/>
<path transform="translate(450,845)" d="m0 0 7 1 5 4 4 4 4-4 8-4 9-1 7 3 5 8 1 70h-18l-1-5v-20l-1-41-6-1-6 3-2 2-1 62h-17l-1-64-3-3-6 1-5 3-1 63h-17l-1-1v-78l1-1h16l1 5 7-3 5-2z" fill="#414569"/>
<path transform="translate(1448,1011)" d="m0 0 4 1 3 5-1 3-9 4 1 8v14l-3 9-5 5-5 3-4 1h-16v5l6 2 18 2 8 4 4 5 2 10-3 9-6 5-6 2-15 1-13-2-7-3-4-5 1-9 5-7 2-1v-2l-5-5-1-5 4-7 4-4-6-9-1-4v-16l4-10 7-6 6-2h12l10 5 4-2z" fill="#414569"/>
<path transform="translate(176,984)" d="m0 0h17l1 5v93l-1 4h-15l-2-3-5 1-4 3h-9l-6-4-4-5-2-7v-43l3-9 7-6 3-1h8l9 3z" fill="#414569"/>
<path transform="translate(1602,814)" d="m0 0h14l10 4 6 7 4 10 1 9-7 2-10 1-1-1-2-12-4-4h-8l-5 5-1 5 3 9 11 11 11 9 8 9 6 12 1 5v10l-3 9-7 8-8 4-3 1h-15l-10-4-6-5-5-10-2-7v-7l11-3h6l4 15 4 4 2 1h6l5-4 1-3v-7l-5-10-8-8-11-9-9-9-5-9-1-4v-13l4-10 7-7z" fill="#414568"/>
<path transform="translate(743,845)" d="m0 0 12 1 6 3 5 5 3 4 2 7v43l-3 8-6 7-9 4h-15l-9-4-6-7-3-9v-40l2-8 3-5 8-7z" fill="#414568"/>
<path transform="translate(978,845)" d="m0 0 12 1 6 3 6 7 2 5 1 8v57h-16l-2-8-7 7-4 2h-9l-7-4-4-5-2-6v-9l4-10 8-7 14-7 7-2-2-16-7-1-3 3-2 9h-18l1-10 4-8 7-6 5-2z" fill="#414568"/>
<path transform="translate(1107,845)" d="m0 0 12 1 7 4 5 7 2 7 1 62h-16l-3-9-5 7-6 3h-9l-7-4-4-6-1-3v-14l3-6 4-5 14-8 9-4h2l-1-11-2-5-5-1-5 5v7h-18v-7l3-9 5-6 8-4z" fill="#414569"/>
<path transform="translate(1633,1012)" d="m0 0h13l8 3 6 7 2 4 1 6v36l-4 11-6 5-7 3h-13l-10-5-4-5-3-8-1-9 1-31 4-9 7-6z" fill="#414569"/>
<path transform="translate(1233,845)" d="m0 0 12 1 8 4 6 9 2 13v14l-1 1-30 1v15l1 10h8l2-1 2-15h17l1 1-1 13-5 10-8 5-4 1h-14l-8-3-5-4-5-10-1-8v-30l2-12 5-8 5-4 5-2z" fill="#41466A"/>
<path transform="translate(282,845)" d="m0 0 13 2 7 6 3 6 1 5 1 62h-16l-2-9-6 7-6 3h-9l-6-4-5-6-1-3v-13l4-8 9-8 18-8v-12l-2-4-4-1-4 1-1 2-1 9-3 1-15-1v-7l3-9 4-5 10-5z" fill="#414568"/>
<path transform="translate(1359,1012)" d="m0 0h14l7 3 5 5 4 8v43l-5 10-8 5-3 1h-14l-8-4-6-7-2-5-1-6v-31l3-12 5-6 5-3z" fill="#414568"/>
<path transform="translate(1689,1012)" d="m0 0h14l8 3 6 7 3 9v36l-3 11-7 6-7 3h-13l-10-5-6-9-1-4v-38l3-9 6-7z" fill="#414568"/>
<path transform="translate(1269,1012)" d="m0 0h13l8 3 6 7 3 8v39l-3 9-7 6-6 3h-14l-10-5-5-7-2-8v-35l3-10 5-6 5-3z" fill="#414568"/>
<path transform="translate(855,1012)" d="m0 0h14l8 3 6 7 2 5 1 30-1 15-4 8-9 6-3 1h-13l-7-3-7-6-3-9-1-7v-21l2-15 3-6 7-6z" fill="#414569"/>
<path transform="translate(1883,845)" d="m0 0 12 1 6 3 6 7 3 9v21l-1 1h-30l1 22 1 3 7 1h3l1-16h18v12l-4 10-6 5-7 3h-15l-10-5-6-8-2-8v-39l2-8 5-8 6-4z" fill="#414568"/>
<path transform="translate(1395,845)" d="m0 0 12 1 6 3 6 7 3 9v21l-1 1h-30l1 23 2 3 9-1 1-15h18v12l-3 9-7 6-8 3h-14l-7-3-7-6-4-12v-39l3-10 7-8 6-3z" fill="#414569"/>
<path transform="translate(535,845)" d="m0 0 13 1 6 3 6 7 3 11v19l-6 1h-25l1 23 2 3h9l1-16h18v12l-4 10-8 6-6 2h-14l-8-3-7-8-3-8v-43l4-10 7-7 5-2z" fill="#414569"/>
<path transform="translate(1776,984)" d="m0 0h17l1 52 1 4 15-24 2-3h19l-6 11-11 17 1 6 15 36v3h-17l-5-12-8-21-3-1-2 5-1 3-1 26h-17z" fill="#414568"/>
<path transform="translate(144,846)" d="m0 0h19l6 3 5 6 3 8 1 6v17l-2 1-29 1v12l1 11 2 2h6l2-1 1-3 1-12h18v10l-3 10-4 5-7 4-4 1h-14l-8-3-8-9-2-6v-45l4-9 4-5z" fill="#414569"/>
<path transform="translate(1054,845)" d="m0 0 8 1 5 5 2 4 1 71h-19l-1-66-9 1-3 2-1 63h-19v-79l1-1h18v7l7-4 6-3z" fill="#41466A"/>
<path transform="translate(1133,984)" d="m0 0h17v35l10-6 3-1h9l5 3 3 5v66h-17l-1-61-8 1-3 1-1 59h-17z" fill="#414568"/>
<path transform="translate(1472,845)" d="m0 0 9 2 5 6 1 3v70h-18l-1-62-1-3-6-1-5 3-1 63h-19v-80h18l1 7 12-7z" fill="#414568"/>
<path transform="translate(1704,846)" d="m0 0h9l1 1 1 67 10-2 2-1 1-64 2-1h16v80l-3 1-14-1-1-5-5 2-9 4h-10l-7-6-2-6v-68z" fill="#414569"/>
<path transform="translate(613,845)" d="m0 0 9 2 4 4 2 6v69h-18l-1-60-1-5-5-1-7 2v64h-19v-80h18l1 6 5-2 7-4z" fill="#414569"/>
<path transform="translate(1449,157)" d="m0 0 5 5 14 19 6 9-1 4-14 8-10 8-10 9-3 3-9-3-28-13-11-5 2-4 8-9 14-11 14-9 15-8z" fill="#FDFDFD"/>
<path transform="translate(1618,157)" d="m0 0 6 1 19 9 11 7 13 10 12 12 1 4-38 18-5 3-5-1-10-10-14-10-13-7 1-4 8-12 11-15z" fill="#FDFDFD"/>
<path transform="translate(1684,206)" d="m0 0 4 1 10 15 8 16 7 19 1 6-1 1h-58l-9-22-6-12 1-4 41-19z" fill="#FDFDFD"/>
<path transform="translate(1382,207)" d="m0 0 4 1 23 10 16 7 5 3-1 4-8 16-4 10-2 6h-59l1-9 6-16 8-16 10-15z" fill="#FDFDFD"/>
<path transform="translate(296,309)" d="m0 0 2 1 3 7 6 7 4 2h9l9-6 5-6 2 2v6l6 12 8 3 9-1 6-3 2-2h3l-1 4-1 5 2 8 4 6 7 3h12l5-2-4 10v9l3 7 5 4 6 2h10l-2 4-5 7-2 8 3 9 5 5 3 2 7 1v4l-5 2-7 9-1 7 3 6 7 8 4 2v2l-10 4-6 5-3 7 2 10 4 6 3 3v2h-11l-8 4-4 4-1 3v12l1 3 3 3-1 3-5-2h-13l-7 4-3 7v16l-12-6-8-1-6 3-6 7-2 6-1 7-5-5-8-6-2-1h-9l-10 9-3 7-3-2-3-6-7-6-5-2h-6l-10 6-5 5-2-10-5-8-6-3h-8l-9 3-4 2-1-2 2-5-2-10-4-6-6-3h-13l-3 2h-3l2-5 3-7v-8l-3-6-8-5-10-1h-3l2-5 4-5 2-4v-10l-4-6-7-5-8-2v-2l7-3 7-11v-8l-7-9-7-4v-2l9-2 6-4 4-8v-7l-5-10-4-4v-2l9 1 9-4 6-5 1-2v-9l-4-10v-3l6 2h12l6-3 4-5 2-8-1-7-1-4 5 2 8 4 7 1 9-3 2-4 4-10v-6l4 2 6 7 5 3h10l10-9zm0 8-4 5v2l-8 4-10 1-8-5-4-3h-2l-4 11-7 6-2 1h-9l-10-3-1 4-1 9-4 6-4 3-10 2h-8l2 8v7l-3 7-6 5-10 3-1 4 3 5 1 9-3 9-7 6-4 2 2 4 6 8 1 3v7l-6 10-4 5 10 6 4 6 1 4v8l-5 9v2l11 3 6 4 3 4 1 8-2 10 5 1 10 1 7 4 4 7 1 10 2 1 8-2h8l6 3 6 7 3 6 4-1 6-4 7-1 9 3 6 5 3 4 3-1 5-7 10-4 8 1 10 7 2-2 3-8 4-5 6-3h10l9 3 2-13 4-7 6-3 11-1h4l-1-15 3-7 6-5 11-3-1-4-3-7v-8l4-9 5-4 6-3-1-3-5-5-4-8v-7l5-9 4-3-1-3-6-3-5-5-3-9 1-5 5-11-9-3-6-3-5-7-1-3v-9l1-5-1-1-12-1-8-4-5-10-1-7-2-1-7 2h-8l-7-3-4-5-4-10-9 6-6 2-8-1-7-4-6-7z" fill="#3C3D67"/>
<path transform="translate(301,201)" d="m0 0h6l5 4 3 5v2l4 1v2h-4v11l-1 11-1 1h-5l2-23-15-1-2 1 1 3 8 1 3 4-1 5-5 6-4 1-3 3-3-1-1-4-7-2-3-3v-7l4-3h6l-1-4-18 2 4 21-1 2h-4l-3-15-1-7-4-1 1 16-5-1-3-2 1-5 2-6-12 2 5 20v3l-5-1-4-15-1-5-5 1-3 1 3 12 3 10-4 1-4-9-4-12-6 1 6 16 1 7-4-1-2-2-6 5-6 1-8-9-1-5 7-5 1-2-14 6h-3l3 7 7 13-1 4-4-2-9-16v-2l-7 2 6 11 6 9-1 3-4-1-4-4v6l-4 6-3-1 1-7-9-8v-2l-6-2 3-3 10-6 6-4 2-2-9-1v-3l7-1-4-4 4-2 8 7 10-3 25-10h2l-3-3-7-6 1-2 5 1 7 7 3 1 6-2-1-6 2-4 9-3 6 1 13 7 11-2h20l2-9z" fill="#383D6C"/>
<path transform="translate(255,1012)" d="m0 0h14l8 4 5 8 1 4 1 58h-14l-2-6v-2l-8 7-6 3-9-3-7-8-1-4v-9l3-7 6-7 14-7 7-2-1-11-2-4-6-1h-2l-2 11-6 1h-9l-1-5 3-10 6-7z" fill="#414569"/>
<path transform="translate(767,1012)" d="m0 0h14l8 3 5 6 3 11v17l-1 1h-28l1 19 2 5 5 1 3-3 1-2 1-10 1-1h13l2 1v8l-3 10-4 5-9 4h-13l-9-4-5-6-3-8v-39l4-10 7-6z" fill="#414568"/>
<path transform="translate(1854,1012)" d="m0 0h13l8 3 4 5 4 11v18l-1 1h-28l1 19 2 5 5 1 3-2 2-13 1-1h14l1 1v10l-2 6-4 6-10 5h-13l-7-3-5-4-4-8-1-4v-36l2-8 4-6 5-4z" fill="#414569"/>
<path transform="translate(1035,1012)" d="m0 0h14l7 3 6 7 2 6v22l-28 1v15l2 7 2 2 5-1 3-7 1-8h14l1 1v13l-4 7-8 6-3 1h-13l-7-3-7-6-3-8-1-6v-25l1-11 5-10 8-5z" fill="#414568"/>
<path transform="translate(1910,1012)" d="m0 0h14l8 4 4 5 3 8v20l-1 1-27 1v15l2 8 5 1 4-4 2-11 1-1h12l2 1v12l-4 8-6 5-6 2h-12l-8-3-7-8-2-5-1-6v-30l2-10 4-7 7-5z" fill="#414569"/>
<path transform="translate(453,1012)" d="m0 0h9l5 4 2 4 1 9v57h-16l-1-3-1-56-2-2-7 1-2 1-1 59h-17v-73h17v4l5-1 4-3z" fill="#41466A"/>
<path transform="translate(649,1013)" d="m0 0h17l1 59 1 2h7l3-1 1-59 1-1h16v73h-16l-2-5-12 6h-9l-5-4-3-6z" fill="#414568"/>
<path transform="translate(1223,1012)" d="m0 0h10l5 5 2 4v65h-16l-1-56-1-6-8 2-3 2-1 58h-17v-73h17v5z" fill="#414568"/>
<path transform="translate(327,1012)" d="m0 0h8l6 5 2 8v60l-1 1h-15l-1-45-1-14-1-2h-6l-4 3-1 57-1 1h-16v-73h16l1 4 6-2z" fill="#41466A"/>
<path transform="translate(116,1012)" d="m0 0h9l5 3 3 6v65h-16l-1-57-1-4h-6l-5 3-1 58h-17v-73h17v5z" fill="#414468"/>
<path transform="translate(1519,139)" d="m0 0h10v40l-1 1-22 3-21 6-4-2-11-15-11-16v-3l21-7 23-5z" fill="#FDFDFD"/>
<path transform="translate(1541,138)" d="m0 0h9l25 4 20 5 14 5 1 2-16 23-8 11-6-1-21-5-16-2-3-1v-40z" fill="#FDFDFD"/>
<path transform="translate(805,818)" d="m0 0h9l4 1v13l-9 2-1 1-1 11h11v13l-10 1-1 16v45l-1 5h-18l-1-66-7-1v-13h8v-9l2-11 4-5 5-2z" fill="#414569"/>
<path transform="translate(1455,1013)" d="m0 0h17l7 35 1 11h2l1-10 6-36h16l-1 10-15 66-3 8-7 6-6 2h-11l-1-10 9-3 3-2-1-9-17-66z" fill="#414569"/>
<path transform="translate(373,823)" d="m0 0h17l1 1v22h11v12l-3 1h-8l1 51 3 2h8v14l-1 1h-18l-7-4-4-7-1-4-1-53h-6l-1-1v-11l1-1h7v-22z" fill="#414568"/>
<path transform="translate(1505,823)" d="m0 0h18l1 22 10 1 1 1v11l-12 1 1 48 1 4 11 2v8l-1 6h-18l-6-3-4-5-2-5-1-7-1-48-7-2v-9l1-2h7v-14z" fill="#414569"/>
<path transform="translate(646,823)" d="m0 0h17l1 1 1 21 10 1 1 1v10l-1 1-11 1 1 51 3 2 9 1-1 13-1 1h-17l-8-4-4-8-1-10-1-46-7-1v-11l1-1h7v-22z" fill="#414669"/>
<path transform="translate(1940,845)" d="m0 0h8l8 3 5 5 5 8 1 5-8 4-5-1-4-8-4-2-5 1-2 3 1 6 9 9 8 7 8 9 3 5 1 8-2 8-4 6-8 5-3 1h-14l-10-5-6-7-2-4v-5l7-3 7-1 4 9 2 2h8l3-3v-5l-9-10-13-11-7-10-1-4v-7l3-8 4-5 8-4z" fill="#414568"/>
<path transform="translate(962,984)" d="m0 0h53l-1 13-16 2-1 87h-17l-1-2-1-86-16-1z" fill="#41466A"/>
<path transform="translate(1654,823)" d="m0 0h18l1 23h10l1 1v11l-10 1-1 1v47l1 4 11 2v12l-2 2h-17l-8-5-4-9-1-55h-7l-1-10 1-2h6l1-3z" fill="#414568"/>
<path transform="translate(1091,1012)" d="m0 0h14l8 3 5 6 2 5 1 6v8l-3 1h-13l-1-1v-8l-2-7h-7l-2 4-1 25 1 15 2 5 4 1 3-1 1-2 1-14 1-1h15v16l-4 8-8 5-3 1h-13l-10-5-4-5-3-8-1-8v-16l1-15 3-9 8-7z" fill="#41466A"/>
<path transform="translate(53,961)" d="m0 0h1915v1l-731 1v1l-13 1h-12l-4-2v1h-18l-1 1v1h-7l-3-1h-11l-1-3-8 2-6 1-4-2-1096-1z" fill="#424568"/>
<path transform="translate(287,335)" d="m0 0h22l15 3 15 5 19 10 13 11 6 5 13 17 10 21 4 12 3 21-1 15-4 20-6 16-8 14-10 13-9 9-10 7-13 8-11 5-19 5-9 1h-21l-15-2-22-8-14-8-11-9-5-4-9-11-6-8-9-17-5-15-3-16v-22l3-16 6-17 10-18 11-13 8-8 11-8 14-8 12-5 16-4zm-2 3-16 3-15 5-11 6-12 8-12 11-9 11-8 13-7 15-4 16-1 9v12l1 14 4 17 7 15 5 9 7 9 11 12 11 9 11 7 11 5 16 5 18 2h10l16-2 17-5 16-8 10-7 10-9 8-8 8-11 10-19 5-19 1-8v-22l-3-16-5-15-9-16-11-14-8-8-15-11-14-8-16-5-12-2z" fill="#3B3D69"/>
<path transform="translate(916,987)" d="m0 0h11l1 1v11l-1 1-7 1v11l8 1v11l-8 1-1 3-1 58h-16l-1-1v-61h-6l-1-1v-10l6-1 3-17 3-5z" fill="#414569"/>
<path transform="translate(714,992)" d="m0 0h16l1 19 1 1 9 1v11h-10v41l2 7 9 1v13l-2 1h-15l-6-3-4-5-2-8v-47h-7v-11l6-1 1-19z" fill="#414669"/>
<path transform="translate(496,1012)" d="m0 0h11l8 4 5 6 3 6-1 4-10 3-5-9-6-2-4 3 1 6 4 5 11 9 8 9 3 6v12l-4 6-5 4-6 3-8 1-9-3-8-7-4-6v-5l9-3h4l3 8 5 3 5-1 2-2-1-7-12-12-8-7-5-7-1-4v-8l3-7 8-7z" fill="#414569"/>
<path transform="translate(611,992)" d="m0 0h16l1 1v19l10 1 1 4-1 7-9 1v46l1 1 9 1v13l-3 1h-14l-7-4-4-8-1-50-7-2v-10l7-1z" fill="#414569"/>
<path transform="translate(537,992)" d="m0 0h17l1 20 10 1v10l-1 1-9 1v46l1 1 9 1 1 1v7l-1 5-2 1h-15l-6-4-4-6-1-4-1-48-6-1-1-10 7-2z" fill="#414568"/>
<path transform="translate(553,343)" d="m0 0 2 1-2 5-11 5h-4l5 16 1 3 8-1 17-4 2 5 5 25-1 4-9 3-14 3v9l1 10h23l3 2v32l-1 1h-24l-2 11-1 8 14 2 11 3-1 8-5 25-1 1-8-1-18-5-1 7-4 10v2l21 9 1 4-1 3-4-1v-3l-5-1-15-6-3-2 2-10 6-16 5-1 21 5 1-11 2-9v-4l-22-5-1-1v-11l2-15 1-1h25v-25h-23l-3-1-2-15v-12l6-2 18-4-4-23-7 1-18 4-3-6-5-16v-6l17-8z" fill="#383767"/>
<path transform="translate(53,984)" d="m0 0h18v102h-18z" fill="#414467"/>
<path transform="translate(75,829)" d="m0 0 13 1 5 3 2 12v52l-2 10-4 4-6 2h-8l-2-2v-80z" fill="#FDFDFD"/>
<path transform="translate(1312,984)" d="m0 0h17l1 50-1 52h-17z" fill="#414568"/>
<path transform="translate(390,984)" d="m0 0h17l1 32-1 70h-17z" fill="#414568"/>
<path transform="translate(355,845)" d="m0 0 4 1v17h-7l-7 3-4 5-1 2-1 53h-18v-79l18-1v10l8-7z" fill="#414568"/>
<path transform="translate(1478,201)" d="m0 0 4 1 8 10 13 19 9 13-2 4-5 5-5-1-31-14-24-11 6-8 11-9 14-8z" fill="#FDFDFD"/>
<path transform="translate(1588,200)" d="m0 0 7 2 16 10 11 10 2 4-37 17-21 10h-4l-5-5-1-3 9-13 12-17 9-12z" fill="#FDFDFD"/>
<path transform="translate(144,267)" d="m0 0h2v6l13 14v4l-5-1-2-3-3 1-4 5-2 1h-6l-1-1-1-11-8 6-1 5 15 12-1 4-4-2-9-7-4-4-5 1-1 4 16 12v4l-2 1-9-7-5-2-2 6-1 4 3 1 11 1v3l-2 1h-10l-7-4 1-6 5-6v-4l-3 1-9 14 1 4 5 5v4l11-1v4l-2 1-19 1v-4l5-2-3-4-4 1-4 7-1 4 19 9v3l-1 2-4-1-16-8h-2l-1 7 18 7 1 5-6-1-8-3 3 6-1 5-5 1-5-5-3-2 1 6-3 1-3-2 1-6 8-21 8-15 10-16 6-8-2-4-3-5 2-4 4-3 11 1 18-18z" fill="#404267"/>
<path transform="translate(435,315)" d="m0 0 4 2 8 9 12 17 8 14 7 16 6 16 4 17 3 20v35l-3 21-4 17-7 19-10 21-7 11-8 11-11 12-6 7-8 7-12 10-15 10-16 9-19 8-8 2 1-5 16-6 19-9 18-12 11-9 10-9 8-8 11-14 10-15 8-16 5-11 5-15 5-22 2-15v-34l-3-20-6-22-8-19-10-19-8-11-7-9-6-8z" fill="#3C3D68"/>
<path transform="translate(1762,1012)" d="m0 0h5l1 3v12l-3 1-8 1-6 6-2 51h-16l-1-3v-70h17l1 9 8-8z" fill="#40476C"/>
<path transform="translate(448,210)" d="m0 0h2l1 4-8 11-1 6 11 8 4 2 9-11 3-3 2-4 5 1 22 22-2 4-13 14 2 4 8 9 3 1 17-13 4 1 11 15 7 11-5 5-11 8-3 2 2 5 7 11 20-9 4 1 10 22 2 5v3l-7 3-1-2 1-6-8-18v-2l-10 4-11 6-4-2-12-20 1-4 17-11-1-5-8-11-3-5-4 1-8 7-7 5-5-2-11-12-4-5 1-4 11-11 2-3-1-4-12-11-5-4-2 5-12 14-4-1-18-14-2-4 10-15z" fill="#373768"/>
<path transform="translate(630,172)" d="m0 0h3v553h-3l-1-61v-398z" fill="#334177"/>
<path transform="translate(1828,846)" d="m0 0h18l1 31-1 49h-18z" fill="#414569"/>
<path transform="translate(1626,233)" d="m0 0 5 1 7 12 6 15-1 3h-74l-1-4 6-4 30-13z" fill="#FDFDFD"/>
<path transform="translate(460,281)" d="m0 0 4 1 11 12 11 14 10 16 6 10 6 14 10-1 4 5-1 7-5 6v5h-3v-3l-20 8-3-1-1-3 20-8 1-4-4-9v-2l-5-1 2 6 1 4-4 4-9 1-4-3v-2h8l4-1v-4l-8 1-5 3-4-1 1-4 3-2-2-2v-6l4-4h7l3 4v2l4 1-4-10-5-7-5 2-6-7-2-1 3 7 2 5-1 2-7 3-5-5-3-6 2-10 2-2h3l-1 6-2 5 2 6 5 1-4-9 2-4 2-3h3l5 6 3 1-6-10-8-11-6-7h-3v4l5 4 2 4-4 6-7 4-4-1 1-4 8-4 1-4-5 2-4 2 1-5 2-4-4-1-2 3-1 9-4-1-1-5 5-15 1-2 3 1-1 5 6-1-1-5-5-5z" fill="#3E4269"/>
<path transform="translate(339,215)" d="m0 0 8 1 27 8 12 5v2l-4 2v5l4 4 1-4 3 1-1 7 5-5h2l-2-6 5 1 1 7-6 5-4 1 2 2 9-1 4-5-1-6 5 1 17 10 13 10 7 5-1 3-5 2-9 11-2 3-5-1 4-7 3-4 1-4-9 2-2-2 1-7h4l6 5 6 1-2-5-13-9h-3l-8 14-2 3-5-1 2-5 8-12v-4l-2-2h-3l-9 17-3 2-2-1 1-5 2-4-6 1-5-3-4-5-2-5-5-3-1 1v6l1 1v5l-5-1-2-9-2-7 1-5 5 3 3 2 1-7-9-3h-4l-3 9-2 9-2 2-4-1 3-12-10-2 3 9 1 4-5-1-4-8-2-11h4l3 4 2-8-9-2z" fill="#373869"/>
<path transform="translate(1523,188)" d="m0 0h6v52l-4 2-5-1-8-10-12-17-11-16 3-3 19-5z" fill="#FDFDFD"/>
<path transform="translate(1439,234)" d="m0 0 7 1 34 16 18 8 2 4-1 1h-72l-1-3 7-17z" fill="#FDFDFD"/>
<path transform="translate(1540,188)" d="m0 0 12 1 19 4 8 3-2 5-26 36-4 5-6-1-1-1z" fill="#FDFDFD"/>
<path transform="translate(577,1013)" d="m0 0h17v73h-17z" fill="#414568"/>
<path transform="translate(208,1013)" d="m0 0h17v73h-17z" fill="#414468"/>
<path transform="translate(54,518)" d="m0 0 1 2h2l3 10v6l-20 8h-2l9 22v3l23-11 4 4 10 18v3l-18 12 1 5 10 14 1 2 6-2 13-10 5 1 7 7 7 8-3 5-4 2-1 2v-3l3-2-2-4-10-10-9 6-10 8-4-2-11-15-7-11 1-3 17-11h2l-8-16-3-1-19 9-4-1-12-29 1-3 12-5 10-3-3-12h2z" fill="#383867"/>
<path transform="translate(301,201)" d="m0 0h6l5 4 3 5v2l4 1v2h-4v11l-1 11-1 1h-5l2-23-15-1-2 1 1 3 8 1 3 4-1 5-5 6-4 1-3 3-3-1-1-4-7-2-3-3v-7l4-3h6l-1-4-18 2 4 21-1 2h-4l-3-15-1-7-4-1 1 16-5-1-3-2 1-5 1-8 2-3-1-2 4-1 6 3 11-2h20l2-9z" fill="#383A6A"/>
<path transform="translate(158,601)" d="m0 0 4 1 8 7 13 9 10 6 11 6 1 4-6 12 2 4h2l2-6 5-10 5 1 20 7 6 2 1 3-1 2h-2l-3-3-3 1-1 5h6v4l-7-1-1 5 6 2v4l-6-1-5-3 1-7 4-13-7 2-6 14-5 1 3-9 4-11-6-1-2 5-6 10-5 1-6-4 1-9 4-10-5-1-9 15-3-1 1-5 6-12-2-3h-3l-7 12-3 3-3-1 2-5 7-11 1-3h-7l-9 13-4-1 2-5 7-9-1-5-4-1h-2l-2-5h-3l-1 4 3 4-1 7-4 3-4-1-5-4-1-4 2-3h2l1 7 5-1v-5l-3-3 2-5z" fill="#393D6B"/>
<path transform="translate(279,254)" d="m0 0h36l20 3 23 6 24 10 19 11 16 12 10 9 9 9-1 4-4-2-13-13-16-12-13-8-17-9-25-9-25-5-10-1h-32l-20 3-20 5-11 4-5-1 1-3 24-8 21-4z" fill="#383868"/>
<path transform="translate(155,569)" d="m0 0 4 2 5 3 10 10 14 11 14 9 21 11 19 7 22 5 17 2h31l18-2 21-5 5 1-3 1v2l-13 4-14 3-22 2h-14l-21-2-21-4-24-8-19-9-16-10-13-10-12-11-4-4-2-4z" fill="#373969"/>
<path transform="translate(1784,858)" d="m0 0 7 1 3 3v50l-4 2h-8l-2-2-1-4-1-15v-16l1-14z" fill="#FDFDFD"/>
<path transform="translate(215,858)" d="m0 0 6 1 4 4v45l-2 5-2 1h-8l-3-2v-50z" fill="#FDFDFD"/>
<path transform="translate(745,858)" d="m0 0 6 2 2 6v39l-2 8-2 1h-7l-3-4v-48l3-3z" fill="#FDFDFD"/>
<path transform="translate(166,1024)" d="m0 0h7l4 4v45l-3 2h-8l-3-4v-44z" fill="#FDFDFD"/>
<path transform="translate(1363,1024)" d="m0 0h6l3 3 1 5v34l-2 7-4 3-5-2-2-3-1-5v-36z" fill="#FDFDFD"/>
<path transform="translate(859,1024)" d="m0 0h7l2 2 1 4v38l-3 7-5 1-4-3-2-13v-17l1-15z" fill="#FDFDFD"/>
<path transform="translate(488,337)" d="m0 0h7l3 4v2l4 1v-6h2l4 10 10-1 4 5-1 7-5 6v5h-3v-3l-20 8-3-1-1-3 20-8 1-4-4-9v-2l-5-1 2 6 1 4-4 4-9 1-4-3v-2h8l4-1v-4l-8 1-5 3-4-1 1-4 3-2-2-2v-6z" fill="#3D426B"/>
<path transform="translate(193,475)" d="m0 0 4 5 6 13 5 9 7 9 10 11 11 9 11 7 11 5 16 5 18 2h10l16-2 17-5 16-8 10-7 10-9 6-6 4 1-7 8-9 8-15 10-15 7-19 5-9 1h-21l-15-2-22-8-14-8-11-9-5-4-9-11-6-8-9-17-2-6z" fill="#393C6A"/>
<path transform="translate(1693,1024)" d="m0 0h6l4 4v42l-3 5h-7l-3-5v-41z" fill="#FDFDFD"/>
<path transform="translate(1272,1024)" d="m0 0h7l3 4v43l-3 4h-7l-3-6v-39l2-5z" fill="#FDFDFD"/>
<path transform="translate(223,268)" d="m0 0 1 2h2v2l-23 11-12 8-13 10-12 11-13 14-13 18-9 16-6 12-4 1-1-2 9-19 10-16 13-17 19-19 17-13 13-8 17-9z" fill="#3E4169"/>
<path transform="translate(1636,1024)" d="m0 0h6l3 3 1 2v41l-2 4-6 2-4-3-1-3v-41z" fill="#FDFDFD"/>
<path transform="translate(339,215)" d="m0 0 8 1 27 8 12 5v2l-4 2v5l4 5-3 1-6-4-1 1v6l1 1v5l-5-1-2-9-2-7 1-5 5 3 3 2 1-7-9-3h-4l-3 9-2 9-2 2-4-1 3-12-10-2 3 9 1 4-5-1-4-8-2-11h4l3 4 2-8-9-2z" fill="#383968"/>
<path transform="translate(199,523)" d="m0 0 2 3h10l8 3 5 4 3 6 1 10 9-2h8l6 3 7 8 2 5 4-1 6-4 7-1 9 3 7 6 2 3h2l6-8 10-4 8 1 10 7 5-10 4-5 4-2h3l-1 3-8 7-3 8-1 7-5-5-8-6-2-1h-9l-10 9-3 7-3-2-3-6-7-6-5-2h-6l-10 6-5 5-2-10-5-8-6-3h-8l-9 3-4 2-1-2 2-5-2-10-4-6-6-3h-13l-3 2h-3l2-5z" fill="#3D4069"/>
<path transform="translate(178,228)" d="m0 0 4 2 6 5 4 2-2 1 3 7 7 13-1 4-4-2-9-16v-2l-7 2 6 11 6 9-1 3-4-1-4-4v6l-4 6-3-1 1-7-9-8v-2l-6-2 3-3 10-6 6-4 2-2-9-1v-3l7-1-4-4z" fill="#383869"/>
<path transform="translate(1565,996)" d="m0 0h11l7 3 3 7v11l-4 8-4 2-11 1-2-1z" fill="#FDFDFD"/>
<path transform="translate(112,264)" d="m0 0 3 3 1 3-13 14-1 2-4-1-13-10-5-3-8 11-6 8 4 4 15 10-1 6-7 12-5-1 2-6 4-6-1-4-13-9-5-4 2-5 14-18 4-5 4 1 12 10 4 3h2l6-8 4-4z" fill="#373868"/>
<path transform="translate(144,267)" d="m0 0h2v6l13 14v4l-5-1-2-3-3 1-4 5-2 1h-6l-1-1-1-11-8 6-1 5 15 12-1 4-4-2-9-7-4-4-5 1-2 3v-2h-5l-2-2v-4l9-1 10-9 11-11z" fill="#3E416A"/>
<path transform="translate(410,669)" d="m0 0 4 4 9 17 2 6-3 1-7-10-5-10v-2l-17 7-1 4 7 17v3l-14 6-17 6h-3l-5-17 1-3h4l3 11v3l19-7 6-1-8-22 2-3z" fill="#393968"/>
<path transform="translate(115,621)" d="m0 0h2l1 4-10 9-6 7 6 7 8 7 3 3 3-1 9-12 5-5 5 2 13 10 5 4-2 5-3 5h-2l-2-4 2-5-11-8-5-3-2 4-9 11-3 4-4-1-15-14-9-8 1-3 8-7 4-4 6-4z" fill="#373667"/>
<path transform="translate(220,223)" d="m0 0 5 1-4 3h-2l6 16 1 7-4-1-2-2-6 5-6 1-8-9-1-5 7-5 1-2-15 6-2-3 20-8z" fill="#3A3A68"/>
<path transform="translate(121,224)" d="m0 0 4 2 11 14 3 2 10-8 4-2 2-5 4 2 1 3-5 5-14 10-4 2-10-11-4-6-4 1-13 11-3 1 2 5 5 4 7 8 2 2-1 4-3 1-4-6-15-15 1-4 11-9z" fill="#393867"/>
<path transform="translate(196,626)" d="m0 0 8 4 1 4-6 12 2 4h2l2-6 5-10 5 1 20 7 6 2 1 3-1 2h-2l-3-3-3 1-1 5h6v4l-7-1-1 5 6 2v4l-6-1-5-3 1-7 4-13-7 2-6 14-5 1 3-9 4-11-6-1-2 5-6 10-5 1-6-4 1-9 4-10-4-3z" fill="#393968"/>
<path transform="translate(527,293)" d="m0 0 2 1-1 5-11 7-1 3 9 14 20-9 4 1 10 22 2 5v3l-7 3-1-2 1-6-8-18v-2l-10 4-11 6-4-2-12-20 1-4z" fill="#373768"/>
<path transform="translate(258,314)" d="m0 0 4 2 6 7 5 3h10l10-8 2 2-5 5-6 4-10 1-8-5-6-4-1 7-4 6-6 5-2 1h-9l-10-3v9l-4 8-6 5-10 2h-7l2 7v7l-3 7-7 6-5 2-5-1 3-2 8-4 5-6v-9l-4-10v-3l6 2h12l6-3 4-5 2-8-1-7-1-4 5 2 8 4 7 1 9-3 2-4 4-10z" fill="#3D436C"/>
<path transform="translate(1169,857)" d="m0 0h6l3 3 1 2v24l-5 5-7-1-3-5-1-6 1-16 3-5z" fill="#FDFDFD"/>
<path transform="translate(89,340)" d="m0 0 5 1 17 8v3l-1 2-4-1-16-8h-2l-1 7 18 7 1 5-6-1-8-3 3 6-1 5-5 1-5-5-3-2 1 6-3 1-3-2 1-6 8-21z" fill="#3D446D"/>
<path transform="translate(47,314)" d="m0 0 6 2 17 8 4-2 2 1-2 5-1 2-6-1-19-9-3 9-6 12v2l20 8 2 2-2 9-4 4 1-5v-3l-2-3-15-6-6-3-1-3 13-27z" fill="#383666"/>
<path transform="translate(1420,1023)" d="m0 0h7l3 4 1 5v11l-2 8-3 2h-6l-3-4-1-3v-17l3-5z" fill="#FDFDFD"/>
<path transform="translate(289,215)" d="m0 0 5 3 8 1 3 4-1 5-5 6-4 1-3 3-3-1-1-4-7-2-3-3v-7l4-3 7 1z" fill="#383868"/>
<path transform="translate(410,509)" d="m0 0h6l5 5-2 4-5 4v8l5 2 4 1 7-3 10-7 4 1 4 4h-3l-6-1-9 7-7 3h-7l-6-3-6-7-1-9 4-7z" fill="#2C69AA"/>
<path transform="translate(296,309)" d="m0 0 2 1 3 7 6 7 4 2h9l9-6 5-6 2 2v6l6 12 8 3 9-1 6-3 2-2h3l-1 4-1 5 2 8 4 6 9 4 7 1v1h-11l-8-4-5-8-2-10-8 2h-8l-7-3-5-6-3-9-9 6-6 2-8-1-7-4-6-7-3 1-1-2z" fill="#3B426E"/>
<path transform="translate(401,306)" d="m0 0h2l-2 4-1 4 7 14v10l-4 6-5 4-5 2-7-1-6-4-2-3v-6l4-4 5 1 6 7 6-1 4-6-1-8-6-13z" fill="#2D68A7"/>
<path transform="translate(169,192)" d="m0 0 4 2 10 18v5l3 1-3 2-4-4-9-17-4 1-17 10v3l6 9 3 6-5 2-12-20 1-3 26-14z" fill="#393867"/>
<path transform="translate(359,282)" d="m0 0h2l-2 4 1 5 8 8 4 7 1 7-4 9-6 5-2 1h-7l-6-4-3-3v-6l4-3 5 1 5 4h5l3-4v-9l-7-9-2-4h-2l1-6z" fill="#2C69A9"/>
<path transform="translate(387,538)" d="m0 0 5 2 3 5-2 4-8 5-1 4 3 3v2l5 2h8l11-5 6 4 1 3h-3l-3-3-6 1-8 4h-9l-8-5-5-8v-8l6-8z" fill="#2D66A4"/>
<path transform="translate(177,507)" d="m0 0 6 1 5 6 1 2v7l-4 7-8 5-7 1-10-5-7-5-9 1v-2l4-2 7 1 7 5 8 2 7-3 2-5-7-8 1-5z" fill="#2C69AA"/>
<path transform="translate(314,571)" d="m0 0 6 1 5 6-1 4-3 3h-10l-2 1-1 6 3 5v2l5 2 12 3 3 3 1 6-3 1-2-7-15-4-6-4-4-7v-10l4-6 5-4z" fill="#2C69A9"/>
<path transform="translate(161,471)" d="m0 0h5l6 7v10l-5 6-6 3h-11l-6-4-9-11-5-1-3 1 1-3 6-1 5 4 7 8 3 2h7l5-3-1-7-3-4 1-4z" fill="#2C6AAB"/>
<path transform="translate(191,305)" d="m0 0h3l4 6-2 5-4 8v8l3 6 6 1 4-4 3-4h6l3 5-1 5-4 5-5 2h-8l-6-4-5-6-1-3v-7l8-16-4-5z" fill="#2C6AAB"/>
<path transform="translate(311,271)" d="m0 0 1 4 2 4 13 8 5 7 1 7-3 8-6 6-3 1h-7l-5-3-2-4 1-4 3-3 5 1 2 1h6l3-5-1-7-5-5-11-8-1-1v-5z" fill="#2C69A9"/>
<path transform="translate(236,281)" d="m0 0 5 5-2 4-9 11-1 2v8l2 4 4 1 6-3 2-2h5l3 4-1 6-5 4-2 1h-8l-5-3-5-6-2-6 1-7 4-6 7-7 3-5-3-4z" fill="#2C69AA"/>
<path transform="translate(272,571)" d="m0 0h6l6 4 4 7v8l-3 6-7 6-15 4-3 7-2-1 1-6 5-3 12-4 5-5v-8l-2-2h-10l-4-3v-5l4-4z" fill="#2C69AA"/>
<path transform="translate(202,536)" d="m0 0 6 2 5 5 2 5-1 8-7 8-8 3-10-2-6-2-7 1-4 2 2-4 3-2 8 1 7 2h6l7-4 1-6-4-4-7-4 1-4 3-4z" fill="#2C68A9"/>
<path transform="translate(233,560)" d="m0 0h8l5 3 4 7v8l-4 7-5 4-5 2h-8l-8-2-2 4-5 3 2-5 4-3h15l8-6 1-5-3-4-8-2-3-2v-5z" fill="#2D67A7"/>
<path transform="translate(427,473)" d="m0 0 6 1 2 7-4 5 1 6 4 2 9-1 7-6 5-6h7l2 2h-6l-7 6-7 8-6 3-9-1-7-4-4-6v-8l3-5z" fill="#2D66A5"/>
<path transform="translate(350,561)" d="m0 0h7l4 4v5l-4 3-9 2v6l5 6 4 2h16l5 6v2l-3-1-4-4h-18l-6-4-5-6-1-2v-10l5-7z" fill="#2F639F"/>
<path transform="translate(134,383)" d="m0 0 5 1 3 4 2 12 3 6 4 3h7l2-3v-7l3-4h6l4 4v7l-4 7-5 3h-10l-6-3-6-7-2-15-1-4-5-2z" fill="#2D67A6"/>
<path transform="translate(125,430)" d="m0 0 6 2 3 4 5 10 5 4h9l2-2v-6l-2-2 1-4 3-3 7 1 3 5-1 10-7 6-2 1h-11l-7-4-4-6-4-9-2-3-5-1z" fill="#2C69AA"/>
<path transform="translate(433,341)" d="m0 0 3 1-5 4 3 15v7l-6 8-8 4-9-1-5-4-3-5 1-6 3-3h6l4 8v2l7 1 3-1 2-4 1-1v-10l-2-10z" fill="#2C69AA"/>
<path transform="translate(284,271)" d="m0 0 3 1 1 5-6 5-10 7-2 3v8l2 4h6l3-2h5l3 4-1 5-5 4-6 1-7-3-5-7-1-3v-8l4-7 9-6 7-5z" fill="#2C69A9"/>
<path transform="translate(117,499)" d="m0 0h2l7 20 11 21 8 12 11 13 5 7-4-1 4 5-4-2-12-13-12-18-11-21-6-15-1-5z" fill="#3E4169"/>
<path transform="translate(157,341)" d="m0 0 4 1 3 3v6l-2 10 3 7 5 4 6-1 3-9 2-2 6 1 3 4-1 7-5 5-3 2h-10l-6-4-5-6-1-2v-8l2-7v-6l-4-3z" fill="#2C68A8"/>
<path transform="translate(464,432)" d="m0 0 5 1-1 2-5 1-4 9-4 8-8 5-7 1-8-3-5-6-1-9 3-5 7-1 4 4-2 6v5l4 3 11-2 2-4 5-12z" fill="#2C68A8"/>
<path transform="translate(435,315)" d="m0 0 4 2 8 9 12 17 8 14 7 16 3 9v9h-2l-7-20-10-20-10-15-8-10-6-8z" fill="#3F4369"/>
<path transform="translate(1164,923)" d="m0 0 18 2 4 2v9l-4 2h-19l-3-3v-6z" fill="#FDFDFD"/>
<path transform="translate(427,396)" d="m0 0 4 2 2 2v8l4 3 7-1 4-5 3-8 2 4-3 9-5 5-6 3h-8l-7-4-4-7 1-7 3-3z" fill="#2C69A9"/>
<path transform="translate(400,410)" d="m0 0 2 3 3 12 2 15-1 15-4 20-6 16-8 14-6 8-4-1 8-11 10-19 5-19 1-8v-22l-3-16z" fill="#40476C"/>
<path transform="translate(419,584)" d="m0 0h5l-2 4-15 12-18 11-16 8-15 6-5 1 1-5 16-6 19-9 18-12 11-9z" fill="#3E446B"/>
<path transform="translate(984,887)" d="m0 0h3v21l-4 4-6 2-5-5-1-7 4-8 7-6z" fill="#FDFDFD"/>
<path transform="translate(255,647)" d="m0 0 5 1 4 3 1 5-2 9-4 6-4 1-6-4-1-2v-9l4-8z" fill="#383A6A"/>
<path transform="translate(394,235)" d="m0 0 5 1 1 7-6 5-4 1 2 2 9-1 4-5-1-6 5 1 5 3v2l-4 1-9 17-3 2-2-1 1-5 2-4-6 1-5-3-4-5v-5h2l1-5 3 1-1 7 5-5h2z" fill="#383868"/>
<path transform="translate(404,622)" d="m0 0 4 1 4 5 6 10-1 3-8 5-4-2-6-7-2-4v-7z" fill="#3D416A"/>
<path transform="translate(396,355)" d="m0 0h2l-4 10v9l3 7 5 4 6 2h10l-2 4-5 7-2 8 3 9 5 5 3 2 7 1v4l-5 2-4 4-2-1 1-3 3-2v-2l-6-3-6-6-3-9 1-5 5-11-13-4-6-7-2-5v-9l1-5-1-1-7-1v-1l10-1z" fill="#3F4369"/>
<path transform="translate(285,887)" d="m0 0h3v22l-5 4-5 1-4-4-1-9 3-6z" fill="#FDFDFD"/>
<path transform="translate(104,527)" d="m0 0h2l4 9-1 4-10 6-7 1-5-5-2-5 8-5z" fill="#3C3E69"/>
<path transform="translate(1113,887)" d="m0 0h2v22l-6 4h-6l-3-6v-7l4-7z" fill="#FDFDFD"/>
<path transform="translate(554,545)" d="m0 0 4 4-2 6-8 17-4 2-17-8-5-1-2 5-5 3h-2l2-5 6-9 6 1 18 8 3-9 5-10z" fill="#383768"/>
<path transform="translate(1416,1083)" d="m0 0h9l9 2 3 2v7l-7 3h-12l-5-2-1-6z" fill="#FDFDFD"/>
<path transform="translate(459,575)" d="m0 0 6 1 8 7 3 4-1 4-4 5-6-1-8-6-4-7 4-6z" fill="#3A3F6C"/>
<path transform="translate(476,382)" d="m0 0 3 4 4 14 4 26v35l-2 1-1-9-1-2-1-25-3-20-3-12z" fill="#3D3D66"/>
<path transform="translate(374,636)" d="m0 0h5l5 7 3 12-5 4h-6l-4-5-3-8v-6z" fill="#3B3C68"/>
<path transform="translate(420,612)" d="m0 0h2l2 5 8 9 1 4-8 6-4-1-6-7-4-7v-3l6-5z" fill="#3F436A"/>
<path transform="translate(1828,818)" d="m0 0h18v16h-16l-2-1z" fill="#40466B"/>
<path transform="translate(469,561)" d="m0 0 5 1 10 6 3 4-1 5-6 5-9-5-5-4-2-3 1-4z" fill="#3A3E6B"/>
<path transform="translate(108,305)" d="m0 0 4 1-9 14 1 4 5 5v4l11-1v4l-2 1-19 1v-4l5-2-3-4-4 1-4 7-2 5-4 1 1-5 9-16z" fill="#3F436A"/>
<path transform="translate(54,518)" d="m0 0 1 2h2l3 10v6l-20 8h-2l7 17-3 2h-2l-8-19 1-3 12-5 10-3-3-12h2z" fill="#373768"/>
<path transform="translate(1374,542)" d="m0 0h1v119h-3v-41l2-12h-2l1-10v-9l-1-8 1-3-1-7v-24z" fill="#363265"/>
<path transform="translate(483,451)" d="m0 0 2 2 1 17-5 25-7 21-3 5-3-2 3-10 5-16 4-18z" fill="#3A3B69"/>
<path transform="translate(264,1050)" d="m0 0 3 1v20l-6 4-6-1-2-5v-7l4-6z" fill="#FDFDFD"/>
<path transform="translate(308,651)" d="m0 0h7v4l-6 1v13l5 1 4-1-1 5h-10l-2-3-1-16h-6l-1 19h-5v-18l-4-1v-3h18z" fill="#383A6A"/>
<path transform="translate(339,215)" d="m0 0 8 1 14 4-2 1 1 5-2 4-2 2-9-1 3 9 1 4-5-1-4-8-2-11h4l3 4 2-8-9-2z" fill="#393B69"/>
<path transform="translate(346,348)" d="m0 0 5 1 11 7 10 9 5 4 13 17 10 21v7h-2l-5-14-8-14-11-14-7-7-15-11-5-3z" fill="#393A68"/>
<path transform="translate(458,288)" d="m0 0 3 1-1 5h8v6l5 4 2 4-4 6-7 4-4-1 1-4 8-4 1-4-5 2-4 2 1-5 2-4-4-1-2 3-1 9-4-1-1-5 5-15z" fill="#383968"/>
<path transform="translate(534,859)" d="m0 0h9l2 2 1 15-6 2h-6l-3-2v-10z" fill="#FDFDFD"/>
<path transform="translate(149,859)" d="m0 0h8l2 1 1 3v14l-5 1h-7l-2-2v-12z" fill="#FDFDFD"/>
<path transform="translate(287,335)" d="m0 0h22l15 3 15 5 8 4v3l-5-2-13-5-13-3-6-1h-25l-16 3-7 1-3-2 19-5z" fill="#40476B"/>
<path transform="translate(1232,859)" d="m0 0h7l3 2 1 4v12l-3 1h-9l-2-2v-10l1-6z" fill="#FDFDFD"/>
<path transform="translate(305,201)" d="m0 0 5 2 5 7v2l4 1v2h-4v11l-1 11-1 1h-5l2-23-8-1 4-2-4-3 1-6z" fill="#3B406B"/>
<path transform="translate(208,987)" d="m0 0h17v13l-1 1h-15l-1-1z" fill="#404368"/>
<path transform="translate(1882,859)" d="m0 0h7l3 2v16l-2 1h-10l-1-1v-15z" fill="#FDFDFD"/>
<path transform="translate(1394,859)" d="m0 0h7l3 2v16l-3 1h-9l-1-1v-14l1-3z" fill="#FDFDFD"/>
<path transform="translate(577,987)" d="m0 0h16l1 1v8l-1 5h-16z" fill="#404469"/>
<path transform="translate(172,249)" d="m0 0 5 1 2 4v3h4l-1-4h2l7 11-1 3-4-1-4-4v6l-4 6-3-1 1-7-5-5-1-7-1-3z" fill="#3B3E6A"/>
<path transform="translate(70,558)" d="m0 0 4 4 5 9-2 4-1-2-3-1-4-7-6 2-15 7-4-1-3-7 1-4 4 1 1 6z" fill="#373666"/>
<path transform="translate(1040,1024)" d="m0 0h5l3 4 1 3v10l-2 1h-10l-2-2v-9l3-6z" fill="#FDFDFD"/>
<path transform="translate(1858,1024)" d="m0 0 7 1 3 8v7l-3 2h-10l-1-1v-11l3-5z" fill="#FDFDFD"/>
<path transform="translate(193,475)" d="m0 0 4 5 6 13 5 9 7 9 10 11 10 8-2 3-9-7-5-4-9-11-6-8-9-17-2-6z" fill="#3A3B68"/>
<path transform="translate(1914,1024)" d="m0 0 7 1 3 6v10l-11 1-3-2v-9l3-6z" fill="#FDFDFD"/>
<path transform="translate(114,553)" d="m0 0h5l2 4-8 10h-2l-2 4-2 2h-3l1-5 2-5h-8l-2-1v-3z" fill="#3A416E"/>
<path transform="translate(144,589)" d="m0 0 5 1-1 4-4 8-1 3 8-7 2-2h3l-1 4-10 10h-2l-1 3-4-1 1-5 3-10-8 9-3-1 1-4 10-10h2z" fill="#3D4169"/>
<path transform="translate(1167,961)" d="m0 0h65l-2 4h-18l-4-2v1h-18l-1 1v1h-7l-3-1h-11z" fill="#3F4067"/>
<path transform="translate(772,1024)" d="m0 0 6 1 3 4v12l-2 1h-9l-2-1v-11l3-5z" fill="#FDFDFD"/>
<path transform="translate(630,624)" d="m0 0h2l1 101h-3z" fill="#363365"/>
<path transform="translate(124,564)" d="m0 0 4 1-1 5-4 5-1 4 10-7 2 1-1 3-8 6-7 5-4-2 2-5 5-8-6 4-3 3h-3l1-5z" fill="#3D416A"/>
<path transform="translate(192,410)" d="m0 0 2 3-1 8-2 14v12l1 14 3 13-1 3-2 1-3-11-2-12v-22l3-16z" fill="#40476C"/>
<path transform="translate(97,511)" d="m0 0 3 1-1 5-8 6-1 2 13-5 1 4-11 4-10 3-1-5 7-5h2l1-3-6 1-4 2h-3v-4z" fill="#3B3E6A"/>
<path transform="translate(414,244)" d="m0 0 5 2 14 9 6 5-1 2-5-2-10-7h-3l-8 14-2 3-5-1 2-5 8-12v-4l-2-3z" fill="#3D416A"/>
<path transform="translate(362,641)" d="m0 0h2l6 18 1 4h-5l-10-11 4 10 1 4h-4l-3-7-1-6 1-3h-2l-1-5 4-1 4 5 5 5-3-12z" fill="#3E446C"/>
<path transform="translate(517,348)" d="m0 0 3 1 2 3-1 7-5 6v5h-3v-3l-20 8-3-1-1-3 20-8 2-2h4l3-9h-2z" fill="#3D4169"/>
<path transform="translate(545,314)" d="m0 0 4 1 10 22 2 5v3l-7 3-1-2 1-6-8-18v-2l-6 2 1-4-1-2z" fill="#3F436A"/>
<path transform="translate(422,192)" d="m0 0 5 1 21 12 5 5-3 3v-3h-2l-2 4v-3l-4-3-16-9-5 4-3-2 2-5z" fill="#373667"/>
<path transform="translate(263,256)" d="m0 0h5l3 2v2l-24 5-18 6-5-1 1-3 24-8z" fill="#3A3C69"/>
<path transform="translate(478,546)" d="m0 0 5 1 6 5 9 4-1 3-5-1-8-3-1-3h-5l-1 4 8 1 1 3 7 5-1 3-5-2-11-7-3-2 1-5z" fill="#3D426C"/>
<path transform="translate(258,314)" d="m0 0 4 2 6 7 5 3h10l10-8 2 2-5 5-6 4-10 1-8-5-6-4-1 7-4 6-6 5-2 1h-9v-1l5-1v-1l9-3 2-4 4-10z" fill="#3D426A"/>
<path transform="translate(1488,203)" d="m0 0 5 5 8 11 10 15-2 4h-2l-14-20-5-7-1-7z" fill="#373566"/>
<path transform="translate(122,288)" d="m0 0h4v5l15 12-1 4-4-2-9-7-4-4-5 1-2 3v-2h-5l-2-2v-4l9-1z" fill="#3C3C66"/>
<path transform="translate(447,587)" d="m0 0 5 1 8 8 5 3-1 4-4-2-6-4-2-4-4-1-1 4 5 3 6 8v3l-4-1-14-14 4-5z" fill="#3C406A"/>
<path transform="translate(485,530)" d="m0 0 6 5 2 3h14l-1 4-1 1h-9v2l5 3-1 4-19-9v-3l2-1 7 3-4-7-2-4z" fill="#383A69"/>
<path transform="translate(1457,161)" d="m0 0h2l7 9 7 10v2h2l3 5 2 3h-3v5h-4l-1-7-12-16-5-7 1-3 1 3z" fill="#373666"/>
<path transform="translate(221,237)" d="m0 0 3 3 2 6v4l-4-1-2-2-6 5-6 1-8-9-1-5 5 1 1 3h3l3-3v4l-1 4 4-1 4-3z" fill="#3A3D6A"/>
<path transform="translate(216,211)" d="m0 0 5 1 8 8v5l2 1 6 20-4 1-4-9-4-12-2-4h2l-3-3-7-6z" fill="#383868"/>
<path transform="translate(227,640)" d="m0 0 13 3 2 4-1 2h-2l-3-3-3 1-1 5h6v4l-7-1-1 5 6 2v4l-6-1-5-3 1-7 4-13h-6z" fill="#3B3F6A"/>
<path transform="translate(186,478)" d="m0 0h1v8l-6 11 9 1 8 5 4 5 1 8-2 9-2-2v-11l-3-6-8-5-10-1h-3l2-5 4-5 3-9h2z" fill="#3C426C"/>
<path transform="translate(345,646)" d="m0 0h3l4 19v3h-4l-1-9h-6l1 11h-3l-3-15-2-6h4l3 7h3v-9z" fill="#3C3D68"/>
<path transform="translate(447,673)" d="m0 0h2l3 5-1 3-24 14h-3v-3l-2-1 18-10 4-2 1-4h2z" fill="#37396A"/>
<path transform="translate(377,513)" d="m0 0 4 1-7 8-9 8-15 10-13 6-2-3 16-8 10-7 10-9z" fill="#3F4167"/>
<path transform="translate(323,649)" d="m0 0h5l5 5v3l-4-2-5-3v12l2 4h4l2-5h2l1 3-4 6-6 1-5-6-1-3v-11z" fill="#393968"/>
<path transform="translate(497,503)" d="m0 0h3l-1 4-1 3 6 3v-6l2-1 3 3-2 5 6 1 2-6h3l-1 6-2 5-7-1-15-5 3-10z" fill="#383B6A"/>
<path transform="translate(493,515)" d="m0 0h1v10l5 1 2-5 3 1-2 6 5 1 4-6h2l-1 6-3 5-7-1-10-4-4-3 3-9z" fill="#3A3D6A"/>
<path transform="translate(212,229)" d="m0 0 3 1 4 11-1 4-5 4-4-1 1-4v-3l-3 3-3-3 2-4 5-3-1-4z" fill="#FDFDFD"/>
<path transform="translate(410,669)" d="m0 0 4 4 9 17 2 6-3 1-7-10-5-10v-3l-5-2 2-2z" fill="#3F4168"/>
<path transform="translate(488,337)" d="m0 0h7l3 4v2h2v2l-4 2-1-4-5-1-3 3 1 2 7 2 1 2-9 4-4 1-1-4 4-3-2-2v-6z" fill="#3D4069"/>
<path transform="translate(102,324)" d="m0 0 5 2 2 3v4l11-1v4l-2 1-19 1v-4l5-2-4-6z" fill="#393B6A"/>
<path transform="translate(269,650)" d="m0 0h7l4 1-1 4-7-2 1 6 5 1v4l-6-1-1 6v3h-6z" fill="#3A3C69"/>
<path transform="translate(174,387)" d="m0 0 11 2-2 2 1 4 3 8-1 10-4 6-6 5-4 1 1-3 6-4 4-8v-7l-5-10-4-4z" fill="#3E3F67"/>
<path transform="translate(144,267)" d="m0 0h2v6l13 14v4l-5-1-2-3-5-3-5-8v-2l-2-1 2-4z" fill="#383767"/>
<path transform="translate(175,244)" d="m0 0h4l4 7v6h-4l-3-7-7 1 3 7v3l-4-2-1-3-6-2 3-3 10-6z" fill="#393967"/>
<path transform="translate(386,230)" d="m0 0 6 2 4 3h-2l2 6-4 1-2 5-2-1 1-7-2-1-1 4-3-1-2-3v-5z" fill="#3A4572"/>
<path transform="translate(435,315)" d="m0 0 4 2 8 9 9 13-4 3-10-14-8-9z" fill="#3F4167"/>
<path transform="translate(399,473)" d="m0 0h2l-1 8-7 16-7 11-4 5-4-1 8-11 10-19z" fill="#3F4167"/>
<path transform="translate(155,227)" d="m0 0 4 2 1 3-5 5-14 10-4 2v-6l14-10 3-3z" fill="#383666"/>
<path transform="translate(341,430)" d="m0 0h5l-2 2-21 7v1l5 1 17 1 5 1v1l-25 1-3-1-2-7v-3l17-3z" fill="#3C4C77"/>
<path transform="translate(96,245)" d="m0 0 6 1 6 7 11 11-1 4-3 1-4-6-15-15z" fill="#373465"/>
<path transform="translate(417,431)" d="m0 0 1 3-4 7 1 7 8 10 5 3v2l-10 4h-3l-1-2 6-3h2l-7-8-4-8v-7l4-7z" fill="#3C406B"/>
<path transform="translate(520,273)" d="m0 0 3 1 12 18-5 5-2 1-1-8-9-13z" fill="#3F4168"/>
<path transform="translate(431,602)" d="m0 0 3 1 3 7 2 7 4 5-1 2-4-1-5-5-10-6 1-3 5 1 5 2-3-5z" fill="#3A3D69"/>
<path transform="translate(413,466)" d="m0 0 3 1-6 9-1 6 3 9 6 7v2h-11l-5 1 2-3 7-1-5-11v-8l4-9z" fill="#3E3F67"/>
<path transform="translate(80,359)" d="m0 0 12 7h3l-1 5-5 1-5-5-3-2 1 6-3 1-3-2 1-6z" fill="#383868"/>
<path transform="translate(134,642)" d="m0 0 3 1-2 6-11 13-2 3h-3l1-5 10-14z" fill="#393A68"/>
<path transform="translate(441,561)" d="m0 0h2l2 4-8 8-6 7-7 5-3-1 6-7 9-9z" fill="#3E436A"/>
<path transform="translate(346,348)" d="m0 0 5 1 11 7 10 9 5 4 1 3-5-1-11-10-15-10z" fill="#3A3B68"/>
<path transform="translate(367,331)" d="m0 0h3l-1 4-1 5 2 8 4 6 9 4 7 1v1h-11l-8-4-5-8-3-13z" fill="#3C3F69"/>
<path transform="translate(223,268)" d="m0 0 1 2h2v2l-23 11h-4v-3l19-10z" fill="#3E426A"/>
<path transform="translate(256,651)" d="m0 0 5 1v7l-4 9-4-1-1-2 1-9z" fill="#FDFDFD"/>
<path transform="translate(120,372)" d="m0 0h4l-1 5-6 18-2 5-3-2 2-10 5-14z" fill="#3A3A67"/>
<path transform="translate(401,626)" d="m0 0h6l6 12-2 4-5-2-6-10z" fill="#FDFDFD"/>
<path transform="translate(186,621)" d="m0 0 10 5-2 4-9 15-3-1 1-5 6-12-4-5z" fill="#373C6D"/>
<path transform="translate(469,301)" d="m0 0 5 5v3l-3 5-7 4-4-1 1-4 8-4 1-4-5 2-4 2 1-5 3-2 3 2z" fill="#373A6A"/>
<path transform="translate(470,565)" d="m0 0 6 2 7 5 1 4-5 2-6-4-6-5v-3z" fill="#FDFDFD"/>
<path transform="translate(486,426)" d="m0 0h1v35l-2 1-1-9-1-2v-16z" fill="#414569"/>
<path transform="translate(384,632)" d="m0 0 3 1 8 15 4-2 4 1-5 5-6 1-9-18z" fill="#3E3F67"/>
<path transform="translate(377,612)" d="m0 0 3 1-2 1-2 4-21 8h-2l1-5 16-6z" fill="#3D4069"/>
<path transform="translate(457,579)" d="m0 0h6l9 8-1 5-5-1-9-7z" fill="#FDFDFD"/>
<path transform="translate(314,459)" d="m0 0 5 3 12 13 7 9h-3l-11-11-8-7-4-4v-2z" fill="#40456A"/>
<path transform="translate(419,616)" d="m0 0 5 3 1 2-1 3 4 4v4l-6-1-6-8-1-4z" fill="#FDFDFD"/>
<path transform="translate(467,519)" d="m0 0 4 2-2 6-8 15h-5l2-5 8-16z" fill="#3F4269"/>
<path transform="translate(296,309)" d="m0 0 2 1 3 7 6 7 4 2h11l-1 3-7 1-8-3-6-5-4-4h-3z" fill="#3C3E68"/>
<path transform="translate(110,288)" d="m0 0 9 1-1 3h-9l2 5 5 1v3h-4l-1 2h6l-4 2-4-1-2-4-3-5 2-4z" fill="#373A6B"/>
<path transform="translate(448,210)" d="m0 0h2l1 4-8 11-2 5h-4l-2 2v-4l9-14z" fill="#3E456C"/>
<path transform="translate(103,532)" d="m0 0h3v5l-8 5-7 1-2-4 6-4z" fill="#FDFDFD"/>
<path transform="translate(374,639)" d="m0 0 4 1 4 9v6l-3 1-4-4-3-10z" fill="#FDFDFD"/>
<path transform="translate(277,460)" d="m0 0h4l-2 5-7 7h-2l-2 4-8 7-4 2 6-8 12-14z" fill="#383D6C"/>
<path transform="translate(199,361)" d="m0 0h2l2 7v7l-3 7-7 6-5 2-5-1 3-2 8-4 5-6v-9l-1-6z" fill="#3E4269"/>
<path transform="translate(1592,654)" d="m0 0h7l18 5 1 2h-26v-1l5-1-4-3z" fill="#383767"/>
<path transform="translate(554,545)" d="m0 0 4 4-2 6-6 13h-2l-2 3-1-5 6-14z" fill="#3F4369"/>
<path transform="translate(483,451)" d="m0 0 2 2 1 17-2 12-2 1-2-3 1-12z" fill="#393C6A"/>
<path transform="translate(255,401)" d="m0 0 4 2 15 14 5 5v2h2l1 3-2 1-8-7-12-13z" fill="#393E6C"/>
<path transform="translate(138,275)" d="m0 0 5 1 4 6-1 6-2 2h-4l-2-8-2-2v-3h2z" fill="#FDFDFD"/>
<path transform="translate(218,638)" d="m0 0 8 1 1 2h-3l-2 5-5 12-5 1 3-9 3-7z" fill="#383867"/>
<path transform="translate(344,548)" d="m0 0h3l-1 3-8 7-3 8-1 7-8-8 1-3 5 3 3-9 5-6z" fill="#3C3C66"/>
<path transform="translate(172,198)" d="m0 0 4 1 7 14v4l3 1-3 2-4-4-8-16z" fill="#3E4169"/>
<path transform="translate(309,463)" d="m0 0 4 4 13 25-1 2-10-15-8-13v-2z" fill="#393D6C"/>
<path transform="translate(130,351)" d="m0 0h2v2l2 1-9 18-4 1-1-2 9-19z" fill="#3D4972"/>
<path transform="translate(460,281)" d="m0 0 4 1 11 12 6 7-1 2-4-1-5-6-5-2-1-6-5-5z" fill="#404267"/>
<path transform="translate(242,209)" d="m0 0h9l7 4-1 2-11 2h-4l-1-7z" fill="#FDFDFD"/>
<path transform="translate(213,510)" d="m0 0 7 6 5 6 10 8-2 3-9-7-5-4-7-8z" fill="#383A6A"/>
<path transform="translate(1479,198)" d="m0 0 3 1-4 3-13 7-7 5-4-2 8-6 8-5z" fill="#373667"/>
<path transform="translate(306,654)" d="m0 0h3v15l5 1 4-1-1 5h-10l-2-3v-15z" fill="#393B6A"/>
<path transform="translate(132,572)" d="m0 0 2 1-1 3-8 6-7 5-4-2 2-5 3-4h2l1 3z" fill="#393867"/>
<path transform="translate(93,341)" d="m0 0 18 8v3l-1 2-4-1-13-7-1-4z" fill="#3E436B"/>
<path transform="translate(306,592)" d="m0 0h2l3 5v2l5 2 12 3 3 3 1 6-3 1-2-7-15-4-6-4-2-3 1-3z" fill="#2C6AAB"/>
<path transform="translate(336,404)" d="m0 0 2 1-12 13-10 10-4-2 5-5 11-10z" fill="#3A3D6A"/>
<path transform="translate(118,555)" d="m0 0h3l-2 5-6 7h-2l-2 4-2 2h-3l1-5 2-5 6-3 4-1z" fill="#3A3C68"/>
<path transform="translate(494,447)" d="m0 0h13l3 1 2-1h6v4l-9 1-15-1-2-1v-2z" fill="#404469"/>
<path transform="translate(388,430)" d="m0 0 1 4v21l-3-1-3 1 1-10v-9l-2-5 5 1z" fill="#393D6B"/>
<path transform="translate(1435,265)" d="m0 0h53v1l-11 1v1h-19l-6-1-17-1z" fill="#363265"/>
<path transform="translate(514,347)" d="m0 0 4 1-2 4h2l-1 6-2 3h-4l-3-6v-3h3l1-4z" fill="#3E466E"/>
<path transform="translate(204,430)" d="m0 0h2v2h2l1-2 1 3v22h-6l1-6v-15l-2-3z" fill="#3A426F"/>
<path transform="translate(97,511)" d="m0 0 3 1-1 5-6 1-7 1-4 2h-3v-4z" fill="#383968"/>
<path transform="translate(76,446)" d="m0 0 5 1h20v4h-25z" fill="#404367"/>
<path transform="translate(269,394)" d="m0 0 4 5 11 18 2 4v3l-4-2-13-25z" fill="#393A68"/>
<path transform="translate(283,463)" d="m0 0 2 1v5l-15 22-1-2 10-20z" fill="#3A3F6C"/>
<path transform="translate(324,396)" d="m0 0 1 2-11 20-3 6-4-1 2-5 12-18z" fill="#3A406D"/>
<path transform="translate(365,542)" d="m0 0h3l1 15-12-6-10-1-1-3h10l9 4z" fill="#3E446C"/>
<path transform="translate(94,504)" d="m0 0h4v3l-11 4-10 3-1-4z" fill="#3E426A"/>
<path transform="translate(282,388)" d="m0 0h1l6 21 4 9-1 3h-3l-4-12-3-15z" fill="#3B4772"/>
<path transform="translate(305,201)" d="m0 0 5 2 3 5v3l-7 1-4-3 1-6z" fill="#3F4268"/>
<path transform="translate(444,592)" d="m0 0h2l2 5 4 2 6 8v3l-4-1-12-12z" fill="#393967"/>
<path transform="translate(54,518)" d="m0 0 1 2h2l3 10v6l-4 1-3-4h2l-3-12h2z" fill="#3E426A"/>
<path transform="translate(248,415)" d="m0 0 6 2 20 11 4 3v2l-9-3-21-14z" fill="#384170"/>
<path transform="translate(396,355)" d="m0 0h2l-4 10v9l1 6-4-2-1-3v-9l1-5-1-1-7-1v-1l10-1z" fill="#3D416A"/>
<path transform="translate(111,543)" d="m0 0h3v4l-16 8-4 1v-4z" fill="#3D446D"/>
<path transform="translate(204,386)" d="m0 0 3 1-8 16-4 10h-2l1-8 8-16z" fill="#3B3D69"/>
<path transform="translate(476,382)" d="m0 0 3 4 4 14-1 7-1-3-3-1-2-12z" fill="#3C3D68"/>
<path transform="translate(284,271)" d="m0 0 3 1 1 5-6 5-10 7-2 3h-2l-1 4-2-1 1-4 4-5 13-8 1-4z" fill="#2E65A3"/>
<path transform="translate(140,583)" d="m0 0h3l-1 4-7 7-7 6-3-1 2-4 12-11z" fill="#3B3E69"/>
<path transform="translate(275,454)" d="m0 0 2 1-1 3-18 10-6 3-2-1 13-9z" fill="#3A3E6B"/>
<path transform="translate(504,365)" d="m0 0 4 1-2 4-13 5-3-1-1-3 10-4z" fill="#383969"/>
<path transform="translate(545,314)" d="m0 0 4 1 4 9h-2v3l-3-1-2-6-6 2 1-4-1-2z" fill="#3E446C"/>
<path transform="translate(172,249)" d="m0 0 5 1 3 7v4l-5-1-6-7v-2z" fill="#FDFDFD"/>
<path transform="translate(230,226)" d="m0 0 2 3 5 17-4 1-4-9-1-6z" fill="#3E466D"/>
<path transform="translate(1205,961)" d="m0 0h27l-2 4h-18l-4-2-4 1z" fill="#404367"/>
<path transform="translate(302,466)" d="m0 0h3l6 25-1 4-6-17-3-11z" fill="#383C6D"/>
<path transform="translate(271,448)" d="m0 0 2 1v3l-12 3-17 4-3-1z" fill="#3A4774"/>
<path transform="translate(344,415)" d="m0 0 2 1-15 10-10 6-4-1v-2l22-11z" fill="#393E6C"/>
<path transform="translate(1508,535)" d="m0 0 2 3v6l1 6-1 9v6l1 5-1 2-1 11h-1z" fill="#363265"/>
<path transform="translate(79,307)" d="m0 0 3 1 1 5-6 10-5-1 2-6z" fill="#3E456C"/>
<path transform="translate(478,302)" d="m0 0 5 2 10 15 1 4-3 1-6-10-7-10z" fill="#3E4169"/>
<path transform="translate(1584,248)" d="m0 0h4v3l-9 4-9 1-3 3-2-4 5-3 7-1z" fill="#373566"/>
<path transform="translate(318,454)" d="m0 0 10 5 14 10-2 1-21-11-2-4z" fill="#3D4771"/>
<path transform="translate(353,366)" d="m0 0 5 3 14 14-1 2-3-1-5-6-6-7-4 2-2 3h-2l1-6z" fill="#3C4671"/>
<path transform="translate(267,221)" d="m0 0h3l3 17-5 1-2-9z" fill="#3A3B68"/>
<path transform="translate(289,466)" d="m0 0 3 1-1 5-7 21-2 2 2-12 4-16z" fill="#384373"/>
<path transform="translate(61,441)" d="m0 0v3l-2 6 8-3 4 1v3l-15 1-8-1 2-2 7-3z" fill="#414569"/>
<path transform="translate(423,260)" d="m0 0 5 2 4 4 3 2h-2l-1 4v-4l-9 2-2-2 1-7z" fill="#393C6B"/>
<path transform="translate(362,641)" d="m0 0h2l6 18 1 4h-5l-3-5 3 1v-4l-3-1v-6l-2-6z" fill="#3F436A"/>
<path transform="translate(332,544)" d="m0 0h4l-1 3-19 5-14-1v-1l16-2z" fill="#3B416D"/>
<path transform="translate(409,415)" d="m0 0h3l5 5 3 2 7 1v4l-5 2-4 4-2-1 1-3 3-2v-2l-6-3-5-5z" fill="#3E426A"/>
<path transform="translate(301,201)" d="m0 0 4 1-2 3v4l6 3v1h-15v-2h3l2-9z" fill="#393866"/>
<path transform="translate(481,547)" d="m0 0 4 2 7 4 6 3-1 3-5-1-8-3-2-4-3-2z" fill="#3A3B68"/>
<path transform="translate(258,442)" d="m0 0h13v3l-4 1-23-1-6-1v-1z" fill="#36588B"/>
<path transform="translate(236,281)" d="m0 0 5 5-2 4-9 11-4 5-2 3 1-7 7-8 6-8-3-4z" fill="#325D96"/>
<path transform="translate(139,271)" d="m0 0 3 3-4 1v2h-2l1 5-7 3-3 3-4-1z" fill="#3D4069"/>
<path transform="translate(262,650)" d="m0 0 2 1 1 5-2 9-4 6-1-2-4-1 3-1 3-8 1-8z" fill="#3D406A"/>
<path transform="translate(106,533)" d="m0 0 3 3 1 2-5 5-9 4-4-1 3-4 10-5z" fill="#3C436D"/>
<path transform="translate(261,523)" d="m0 0 5 2 2 1 4 8 2 1v-8h3v9h-6l-5-3-2-5-3-3z" fill="#3C416C"/>
<path transform="translate(125,430)" d="m0 0 6 2 3 4 5 10 3 3 2 5-5-2-4-6-4-9-2-3-5-1z" fill="#355A8E"/>
<path transform="translate(310,392)" d="m0 0 1 3-6 26-4-1 2-9z" fill="#3C4671"/>
<path transform="translate(296,384)" d="m0 0h1l1 35-4 1 1-29z" fill="#3B4F7A"/>
<path transform="translate(112,264)" d="m0 0 3 3 1 3-7 8h-7l4-6 5-5z" fill="#3F446B"/>
<path transform="translate(239,262)" d="m0 0 4 2v2l-14 5-5-1 1-3z" fill="#393967"/>
<path transform="translate(227,640)" d="m0 0 13 3 2 4-1 2h-2l-3-3-3 1-2 5-3-1 2-9h-6z" fill="#3B436E"/>
<path transform="translate(147,612)" d="m0 0h2l1 7 7-1 3-4-1 7-4 3-4-1-5-4-1-4z" fill="#383969"/>
<path transform="translate(89,354)" d="m0 0 5 1 12 5v4l-6-1-6-3v-2l-4-1-2-2z" fill="#393A67"/>
<path transform="translate(394,235)" d="m0 0 5 1 1 7-6 5h-5l3-6 4-1z" fill="#373D6F"/>
<path transform="translate(147,559)" d="m0 0 6 3 8 9h-3v1l3 4-4-2-11-12z" fill="#3D3E67"/>
<path transform="translate(199,239)" d="m0 0 5 1 1 3h3l3-3v4l-1 4-1 2-5-1-5-7z" fill="#393865"/>
<path transform="translate(177,560)" d="m0 0 8 1 7 2h6l4-1 1 4-7 1-13-4-7 1-4 2 2-4z" fill="#2E64A3"/>
<path transform="translate(321,448)" d="m0 0 11 3 19 6-4 1-25-5z" fill="#394A78"/>
<path transform="translate(223,330)" d="m0 0 5 2 8 4 8 2v1h-10l-6-2-1 8-2-4-1-7z" fill="#3C3F6A"/>
<path transform="translate(473,315)" d="m0 0h3l-1 6-2 5 2 6 2 1h-5l-3-6 2-10z" fill="#3E436B"/>
<path transform="translate(243,429)" d="m0 0 8 1 20 4 3 3-3 1-16-4-12-4z" fill="#3D4A73"/>
<path transform="translate(494,351)" d="m0 0h5l1 5-5 2-8-1v-3z" fill="#FDFDFD"/>
<path transform="translate(1612,163)" d="m0 0 1 3-12 17-3-1 4-8 7-9h3z" fill="#373868"/>
<path transform="translate(238,548)" d="m0 0h10l8 7 4 8-1 3-6-9-5-5-10-3z" fill="#383969"/>
<path transform="translate(129,296)" d="m0 0 6 4 6 5-1 4-4-2-9-7z" fill="#3D426C"/>
<path transform="translate(468,228)" d="m0 0 4 2-3 5-5 6h-2v-2h-2l2-4z" fill="#404468"/>
<path transform="translate(403,498)" d="m0 0m-3 1 3 1-8 8-2 11h-3v-7l3-7z" fill="#3E4169"/>
<path transform="translate(296,467)" d="m0 0 2 1v15l-1 22h-1l-1-23v-14z" fill="#3A4976"/>
<path transform="translate(301,344)" d="m0 0 8 4 1 4h-3l-4-2 1 7 5-2-2 4-4-1-3-4z" fill="#384C7D"/>
<path transform="translate(359,282)" d="m0 0h2l-2 4 1 5 8 8 3 4-1 4-3-3-7-9-2-4h-2l1-6z" fill="#384D7E"/>
<path transform="translate(435,271)" d="m0 0 3 1-9 12-5-1 4-7z" fill="#3E3E67"/>
<path transform="translate(400,633)" d="m0 0 4 2 3 5 6 1-2 4-4 1-8-9z" fill="#3B416D"/>
<path transform="translate(311,271)" d="m0 0 1 4 2 4 13 8 1 6-7-6-11-8-1-1v-5z" fill="#34588E"/>
<path transform="translate(300,219)" d="m0 0 4 2 1 5-4 6-2 2-4-1 5-9-1-4z" fill="#3C3F69"/>
<path transform="translate(178,625)" d="m0 0h5l-4 8-5 6-3-1 2-5z" fill="#3E436A"/>
<path transform="translate(170,617)" d="m0 0 1 3 2 1-8 11-4-1 2-5z" fill="#3F446B"/>
<path transform="translate(467,578)" d="m0 0 7 6 2 3-1 4-4 4-3-1 3-1v-6l-6-7z" fill="#3C3D68"/>
<path transform="translate(38,549)" d="m0 0h2l5 13-5 1-5-13z" fill="#3E4269"/>
<path transform="translate(191,243)" d="m0 0 3 4 6 11-1 4-4-2-4-8 2-1-3-5z" fill="#3C416B"/>
<path transform="translate(1700,190)" d="m0 0 4 2 11 15 5 8-1 4-10-16v-2h-2l-6-8z" fill="#393967"/>
<path transform="translate(374,636)" d="m0 0h5l3 4v2h-4l-1-2h-3l-1 7-3 1-1-2v-6z" fill="#3A3B68"/>
<path transform="translate(322,339)" d="m0 0 9 1 12 5 4 3v2l-5-2-13-5-7-2z" fill="#40456A"/>
<path transform="translate(174,387)" d="m0 0 11 2-2 2 1 4 1 2v6h-2l-5-10-4-4z" fill="#3D426B"/>
<path transform="translate(170,248)" d="m0 0 1 3h-2l3 7v3l-4-2-1-3-6-2 3-3z" fill="#383868"/>
<path transform="translate(277,211)" d="m0 0h17l1 3-6 5-2-1v-4h-8z" fill="#3D456E"/>
<path transform="translate(469,561)" d="m0 0 5 1v3l-7 1 3 5 2 4h-3l-5-5 1-4z" fill="#3A3B67"/>
<path transform="translate(237,547)" d="m0 0h8l-3 3-12 3-6 3-1-2 2-4z" fill="#3E446B"/>
<path transform="translate(234,531)" d="m0 0 5 2 10 6 6 3-4 2-16-9z" fill="#3E4269"/>
<path transform="translate(418,454)" d="m0 0 8 6 2 1v2l-10 4h-3l-1-2 6-3h2l-5-5z" fill="#3C446E"/>
<path transform="translate(312,218)" d="m0 0h1l1 19-1 1h-5l2-12h2z" fill="#3A3B68"/>
<path transform="translate(316,350)" d="m0 0h7l2 1-1 4-2-1v-2l-2 1 2 6h4l-1 4-6-3-4-6z" fill="#36588B"/>
<path transform="translate(121,307)" d="m0 0 7 2 6 5-2 4-5-3-5-4-3-3z" fill="#3A3C69"/>
<path transform="translate(295,222)" d="m0 0 5 1-1 5-4 6-3-2 1-7z" fill="#FDFDFD"/>
<path transform="translate(1590,199)" d="m0 0 6 1 12 8 9 7 1 2-5-2-8-6-10-6-5-2z" fill="#393A69"/>
<path transform="translate(1161,962)" d="m0 0h6l1 2h16l-2 2h-26l3-3z" fill="#363265"/>
<path transform="translate(492,323)" d="m0 0 4 1 6 10 1 4-2 2-7-12-4-1z" fill="#3D3F68"/>
<path transform="translate(269,650)" d="m0 0h7l4 1-1 4-7-2v6l-4-1z" fill="#39406E"/>
<path transform="translate(354,534)" d="m0 0h2l-1 3-15 8-4 1-1-3z" fill="#3E4269"/>
<path transform="translate(1584,265)" d="m0 0h43v1l-23 1-5 1h-4l-6-1-5-1z" fill="#363265"/>
<path transform="translate(130,478)" d="m0 0 6 1 10 11 1 4-4-2-8-10-5-1-3 1 1-3z" fill="#325D95"/>
<path transform="translate(332,663)" d="m0 0h2l1 3-4 6-6 1-3-4 1-2 7 1z" fill="#3D436D"/>
<path transform="translate(107,613)" d="m0 0 5 3 4 5-5 6h-2l-1 2v-3l3-2-2-4-2-2z" fill="#3F4268"/>
<path transform="translate(114,320)" d="m0 0 14 1v3l-2 1h-10l-3-3z" fill="#393A69"/>
<path transform="translate(396,701)" d="m0 0h2l1 5-11 5h-2l1-6 9-1z" fill="#3F4167"/>
<path transform="translate(171,423)" d="m0 0 2 1 1 4 4 4v2l-3 1-4-5-7-4v-2z" fill="#3C406A"/>
<path transform="translate(409,396)" d="m0 0h2l-2 10 2 10h-3l-3-9 1-5z" fill="#3D3F68"/>
<path transform="translate(487,357)" d="m0 0h15l-2 4-9 1-4-3z" fill="#383968"/>
<path transform="translate(72,274)" d="m0 0 4 2-2 4-2 3h-4l-4 6-2-2z" fill="#3D3E68"/>
<path transform="translate(436,570)" d="m0 0 2 2-7 8-7 5-3-1 2-3 5-3z" fill="#383767"/>
<path transform="translate(314,459)" d="m0 0 5 3 6 7h-3l-4-1-6-6v-2z" fill="#373F70"/>
<path transform="translate(239,364)" d="m0 0h3l2 5 3 3v2h-9l-1-3 5 2-2-5-8-1 1-2z" fill="#3B4975"/>
<path transform="translate(293,318)" d="m0 0 2 2-5 5-6 4h-8l-3-2 10-1z" fill="#3D446D"/>
<path transform="translate(382,232)" d="m0 0h6l1 2-3 8-3-1-2-3v-5z" fill="#FDFDFD"/>
<path transform="translate(156,603)" d="m0 0h2l-1 7 2 2-1 6h-3v-5l-3-3 2-5z" fill="#3D3E66"/>
<path transform="translate(268,559)" d="m0 0 5 1-4 3-7 5-4 4v-7l6-3z" fill="#3F4268"/>
<path transform="translate(175,464)" d="m0 0 4 2 5 5 2 3v7h-2l-2-7-5-5-3-4z" fill="#393B6A"/>
<path transform="translate(96,324)" d="m0 0 1 3-2 5-4 9-4 1 1-5 7-12z" fill="#3D4069"/>
<path transform="translate(490,341)" d="m0 0 5 1 2 3-5 3-5-1-1-2z" fill="#FDFDFD"/>
<path transform="translate(401,306)" d="m0 0h2l-2 4-1 4 6 12-1 3-6-10-3-7z" fill="#375485"/>
<path transform="translate(433,341)" d="m0 0 3 1-5 4 2 10v9l-2 1-2-14-1-6z" fill="#335C93"/>
<path transform="translate(257,342)" d="m0 0h5v2l-16 7h-2v-3z" fill="#3B3B66"/>
<path transform="translate(188,633)" d="m0 0 4 1-7 11-3-1 1-5 3-5z" fill="#3F436A"/>
<path transform="translate(425,620)" d="m0 0 4 2 4 6-2 4h-2v-5l-4-1-2-3z" fill="#393A68"/>
<path transform="translate(173,455)" d="m0 0 3 1-4 6 3 1-1 3-10-3v-2l7-3z" fill="#3E426A"/>
<path transform="translate(191,305)" d="m0 0h3l4 6-2 5-5 9-3 3 1-5 6-11-4-5z" fill="#36578A"/>
<path transform="translate(354,222)" d="m0 0 5 1 1 3-2 4-6-1 1-6z" fill="#FDFDFD"/>
<path transform="translate(437,664)" d="m0 0 5 2 3 1 3 6-3 3-4-5z" fill="#3E4168"/>
<path transform="translate(102,520)" d="m0 0 2 4-11 4-3-1-2-2 5-1z" fill="#3C426C"/>
<path transform="translate(357,233)" d="m0 0 1 2h2l1 5-2 5-4 1-1-3 2-4z" fill="#3D3E68"/>
<path transform="translate(313,557)" d="m0 0 8 1 5 3-1 4-6-4h-10v-3z" fill="#3C436E"/>
<path transform="translate(253,543)" d="m0 0 8 1 13 4v2l-9-1-12-5z" fill="#3B3C67"/>
<path transform="translate(481,479)" d="m0 0 2 4-2 9-4 1 1-8 2-5z" fill="#383767"/>
<path transform="translate(333,350)" d="m0 0 4 1 4 6-1 4-3 6-3-1 1-4 2-2-1-5z" fill="#394270"/>
<path transform="translate(334,314)" d="m0 0 2 2h-2l-1 5-9 7h-2l1-4 6-4z" fill="#3C456F"/>
<path transform="translate(419,200)" d="m0 0 3 4-4 8-5-2 4-9z" fill="#3F4168"/>
<path transform="translate(219,588)" d="m0 0 15 1 2 2h-8l-8-2-2 4-5 3 2-5z" fill="#2E65A2"/>
<path transform="translate(341,430)" d="m0 0h5l-2 2-15 5h-5v-2l9-3z" fill="#3B4672"/>
<path transform="translate(83,356)" d="m0 0 5 1 2 1v7l-8-4z" fill="#FDFDFD"/>
<path transform="translate(157,341)" d="m0 0 4 1 3 3v6l-3 12h-2l1-9 1-2v-6l-4-3z" fill="#315D96"/>
<path transform="translate(489,337)" d="m0 0h6l3 4v2h2v2l-4 2-1-4-5-1-3-1h2z" fill="#393967"/>
<path transform="translate(286,220)" d="m0 0 3 1v6l-4 2-3-2 1-5z" fill="#FDFDFD"/>
<path transform="translate(1189,961)" d="m0 0h16l-1 3h-14z" fill="#3F4067"/>
<path transform="translate(274,600)" d="m0 0 2 1v2l-13 3-3 7-2-1 1-6 5-3z" fill="#2C6AAB"/>
<path transform="translate(511,523)" d="m0 0h2l-1 6-3 5-5-1-1-3 5-2z" fill="#393D6C"/>
<path transform="translate(493,515)" d="m0 0h1v12l-2 2-4-3 3-9z" fill="#383A6A"/>
<path transform="translate(254,330)" d="m0 0 3 2-8 7-2 1h-9v-1l5-1v-1l9-3z" fill="#3E466E"/>
<path transform="translate(338,656)" d="m0 0 2 1 2 8v5h-3l-2-8v-5z" fill="#3D426B"/>
<path transform="translate(67,603)" d="m0 0 4 2 6 10h-3-1l-4-2-2-4 2-1 1 1-3-3z" fill="#3D446D"/>
<path transform="translate(221,532)" d="m0 0 3 1 3 6 1 7-2 4-1-1-2-10-2-4z" fill="#3C3C66"/>
<path transform="translate(461,532)" d="m0 0h2v2l2 1-4 7h-5l2-5z" fill="#3D436B"/>
<path transform="translate(420,612)" d="m0 0h2l2 5v3l-5-3-5 4-2-3 5-5z" fill="#3B416D"/>
<path transform="translate(461,587)" d="m0 0 10 5-2 2 2 2-6-1-6-5 1-2z" fill="#3F456C"/>
<path transform="translate(326,562)" d="m0 0 6 3 1-3h2l-1 11-8-8z" fill="#3C3E68"/>
<path transform="translate(141,552)" d="m0 0 5 1 5 6-1 2-3-1-2 1-5-8z" fill="#3D436D"/>
<path transform="translate(469,301)" d="m0 0 4 4-1 4h-2v-4l-5 2-4 2 1-5 3-2 3 2z" fill="#3D416A"/>
<path transform="translate(373,646)" d="m0 0 2 4 2 5 2 1-4 2-5-8 1-3z" fill="#3C456F"/>
<path transform="translate(284,529)" d="m0 0 4 1 3 7 1 2h-5l-4-6z" fill="#3C406B"/>
<path transform="translate(513,430)" d="m0 0 2 1-7 7-2 6h-7l1-3 6-4z" fill="#414367"/>
<path transform="translate(296,309)" d="m0 0 2 1 3 8-2 2-3-2h-3z" fill="#404167"/>
<path transform="translate(168,305)" d="m0 0h2l-1 4-9 9-2-1v-2h2l2-4 4-4h2z" fill="#393665"/>
<path transform="translate(185,257)" d="m0 0 5 5 1 4-4 1-3-4v-2l-2-2z" fill="#3A3866"/>
<path transform="translate(244,232)" d="m0 0 1 2h2l2 9-5-1-1-7z" fill="#3B3C68"/>
<path transform="translate(178,208)" d="m0 0 4 2 1 7 3 1-3 2-4-4-2-6z" fill="#3C3D66"/>
<path transform="translate(410,669)" d="m0 0 4 4 1 3-3 1-1 2-1-5-5-2 2-2z" fill="#3D446D"/>
<path transform="translate(124,564)" d="m0 0 4 1-1 5-3 1-5-1 2-4z" fill="#393765"/>
<path transform="translate(196,381)" d="m0 0 2 1-2 4-8 4-5-1 3-2 8-4z" fill="#394170"/>
<path transform="translate(109,292)" d="m0 0h8l-1 5-5 1-2-2z" fill="#FDFDFD"/>
<path transform="translate(208,230)" d="m0 0 4 2-2 4-4 2-1 2-5-1 5-4z" fill="#3D456D"/>
<path transform="translate(216,227)" d="m0 0 1 3 3 1 2 6-2 4h-2l-3-10z" fill="#3E4168"/>
<path transform="translate(149,663)" d="m0 0 3 1 1 3-2 2-2-1-6 8-2-1z" fill="#404369"/>
<path transform="translate(371,530)" d="m0 0h2l-1 4-4 8-1 7h-1v-11z" fill="#3D3D66"/>
<path transform="translate(193,475)" d="m0 0 4 5 3 9-3 1-4-10z" fill="#3A3E6B"/>
<path transform="translate(180,293)" d="m0 0 3 1-1 4-5 4-4-2 5-5z" fill="#3A3B67"/>
<path transform="translate(224,171)" d="m0 0 4 1 2 9-5 1-2-6h2l1-4z" fill="#3D456E"/>
<path transform="translate(456,594)" d="m0 0 4 2 5 3-1 4-4-2-5-3z" fill="#3A3A67"/>
<path transform="translate(485,530)" d="m0 0 6 5 2 3-1 5-8-10z" fill="#3D436C"/>
<path transform="translate(88,514)" d="m0 0 1 2 4 1-9 3-5 1v-4z" fill="#3C3E68"/>
<path transform="translate(378,473)" d="m0 0 4 1 3 2-1 5-2 2v-7l-4 4-1 3-3 1 2-5z" fill="#385180"/>
<path transform="translate(524,447)" d="m0 0 7 1v2l3 1v1l-12-1v-3z" fill="#424568"/>
<path transform="translate(464,432)" d="m0 0 5 1-1 2-5 1-4 9-2 3-1-3 4-10z" fill="#2C6AAB"/>
<path transform="translate(294,344)" d="m0 0h2v14h-3v-7l-1-6z" fill="#3F466C"/>
<path transform="translate(147,284)" d="m0 0 3 3-5 6-5 1-1-3 6-3z" fill="#3A3D6B"/>
<path transform="translate(246,260)" d="m0 0h5l1 3-5 2-7-1 2-3z" fill="#383969"/>
<path transform="translate(448,210)" d="m0 0h2l1 4-5 6-3 1v-6z" fill="#3C3E68"/>
<path transform="translate(1183,961)" d="m0 0h6v5h-7l-3-1h-4v-2h8z" fill="#414467"/>
<path transform="translate(132,572)" d="m0 0 2 1-1 3-8 6h-2l2-5z" fill="#3D446E"/>
<path transform="translate(102,557)" d="m0 0h5l-1 5-7 1-2-1v-3z" fill="#37396A"/>
<path transform="translate(186,478)" d="m0 0h1v8l-4 7-3-1 3-6 1-5h2z" fill="#3E436A"/>
<path transform="translate(55,357)" d="m0 0 3 2-2 4 2 2-2 7h-2v-4h-2z" fill="#3F4369"/>
<path transform="translate(360,698)" d="m0 0h5l1 6h-2v5h-2z" fill="#404369"/>
<path transform="translate(360,619)" d="m0 0h2l2 4-11 3 1-5z" fill="#3E456C"/>
<path transform="translate(144,589)" d="m0 0 5 1-1 4-4 4v-3l-2-1v-3h2z" fill="#373869"/>
<path transform="translate(382,526)" d="m0 0h6l2 2-11 2-6 2 1-4z" fill="#374374"/>
<path transform="translate(206,476)" d="m0 0h2l10 16-1 3-8-12-3-5z" fill="#316099"/>
<path transform="translate(212,395)" d="m0 0 4 2 6 5-2 3-4-2-2-4-2-1z" fill="#393F6D"/>
<path transform="translate(204,386)" d="m0 0 3 1-6 12-3-3z" fill="#3E466E"/>
<path transform="translate(228,369)" d="m0 0 4 2 3 5 4 5-4-1-7-7-1-3z" fill="#3A3F6B"/>
<path transform="translate(390,366)" d="m0 0h3l2 14-4-2-1-3z" fill="#3F466D"/>
<path transform="translate(513,352)" d="m0 0h5l-1 6-4 2-1-1z" fill="#FDFDFD"/>
<path transform="translate(227,340)" d="m0 0h1l-1 9-4 6-3 2 2-6 3-8z" fill="#3D456E"/>
<path transform="translate(150,325)" d="m0 0 2 1-2 4-5 7h-3l2-5z" fill="#373769"/>
<path transform="translate(157,315)" d="m0 0 2 2-1 4-4 4-2-1 1-1-3-2z" fill="#3D456E"/>
<path transform="translate(469,293)" d="m0 0 6 2 6 6-1 2-4-1-7-8z" fill="#393967"/>
<path transform="translate(272,285)" d="m0 0h3v2l-5 5h-2l-1 4-2-1 1-4 4-5z" fill="#3B4E7B"/>
<path transform="translate(392,236)" d="m0 0 3 1 1 4-4 1-2 5-2-1 3-9z" fill="#FDFDFD"/>
<path transform="translate(140,583)" d="m0 0h3l-1 4-5 5h-2l-1-3z" fill="#3B3B66"/>
<path transform="translate(74,572)" d="m0 0 6 1 3 5-1 3-5-2z" fill="#3D426A"/>
<path transform="translate(274,557)" d="m0 0 11 2v2l-3 1-12-2v-2z" fill="#3B406C"/>
<path transform="translate(94,504)" d="m0 0h4v3l-8 3-3-1 4-4z" fill="#3E466E"/>
<path transform="translate(248,415)" d="m0 0 6 2 11 6-4 2-13-9z" fill="#3D416A"/>
<path transform="translate(428,253)" d="m0 0 5 2 6 5-1 2-5-2-5-5z" fill="#3D436C"/>
<path transform="translate(220,223)" d="m0 0 5 1-4 3h-2v3h-2v-3l-4 1-1-2z" fill="#3A3D6A"/>
<path transform="translate(1151,961)" d="m0 0h16v1l-8 2-6 1z" fill="#414367"/>
<path transform="translate(348,656)" d="m0 0 2 1 2 11h-4l-1-9z" fill="#3F446B"/>
<path transform="translate(285,560)" d="m0 0 5 3 4 5-1 3-10-10z" fill="#3D3D66"/>
<path transform="translate(199,523)" d="m0 0 4 5-6 4h-3l2-5z" fill="#3B3C68"/>
<path transform="translate(399,473)" d="m0 0h2l-1 8-3 6h-2l1-5z" fill="#3F4067"/>
<path transform="translate(334,316)" d="m0 0h1l2 8 2 5-1 4-3-4-2-9z" fill="#3C3C66"/>
<path transform="translate(150,322)" d="m0 0 4 1-1 3-4 1-6 8h-2l2-4z" fill="#3D3E66"/>
<path transform="translate(549,318)" d="m0 0 3 3 1 3h-2v3l-3-1-2-4v-3z" fill="#363A6D"/>
<path transform="translate(243,224)" d="m0 0h2l2 10-5 2-1-7z" fill="#3E436B"/>
<path transform="translate(358,650)" d="m0 0 5 4 3 1 1 5-6-3-4-4z" fill="#3A3966"/>
<path transform="translate(308,651)" d="m0 0h7v4l-9-1-1 2-1-3z" fill="#3C4570"/>
<path transform="translate(138,597)" d="m0 0h2l-2 4-4 5-3-1 1-4z" fill="#3A3966"/>
<path transform="translate(42,562)" d="m0 0 4 1 1 5-4 3-2-5z" fill="#393967"/>
<path transform="translate(274,527)" d="m0 0h3v9h-6l-2-1 1-4 4 4z" fill="#385180"/>
<path transform="translate(80,432)" d="m0 0h2v2l4 2 1 2 5 3 2 3-6-1-5-6v-2h-2z" fill="#404267"/>
<path transform="translate(480,330)" d="m0 0 2 2-1 4-4 2-4-3v-2h7z" fill="#373969"/>
<path transform="translate(302,205)" d="m0 0h5l3 6-7-1z" fill="#FDFDFD"/>
<path transform="translate(630,172)" d="m0 0h3v18l-3-4z" fill="#414467"/>
<path transform="translate(355,657)" d="m0 0 3 1 3 5v3h-4l-3-8z" fill="#3F4269"/>
<path transform="translate(323,649)" d="m0 0h5l5 5v3l-4-2-4-3-3-2z" fill="#404367"/>
<path transform="translate(147,612)" d="m0 0h2l1 7h2v2l-3 1-4-5z" fill="#3A4370"/>
<path transform="translate(141,592)" d="m0 0 3 3 1 5-3-1-1-1-8 2 5-5z" fill="#3D446D"/>
<path transform="translate(313,549)" d="m0 0h9l-1 2-11 1-8-1v-1z" fill="#3C416A"/>
<path transform="translate(506,538)" d="m0 0 1 3-2 2h-7v-3l1-1z" fill="#3D3F68"/>
<path transform="translate(54,518)" d="m0 0 1 2h2l1 6-2 2h-2l-2-7h2z" fill="#3C406A"/>
<path transform="translate(377,513)" d="m0 0 4 1-8 7-5 4 1-4z" fill="#3B3A66"/>
<path transform="translate(201,508)" d="m0 0 2 4-1 10-2 3-1-5z" fill="#3D4973"/>
<path transform="translate(457,481)" d="m0 0h7l2 2h-6l-7 6-2 2v-3z" fill="#2C6AAB"/>
<path transform="translate(269,394)" d="m0 0 4 5 5 8-1 2h-2l-6-12z" fill="#3D4973"/>
<path transform="translate(517,348)" d="m0 0 3 1 2 3v5h-3-1v-5h-2z" fill="#393865"/>
<path transform="translate(104,347)" d="m0 0 7 2v3l-1 2-4-1-2-3z" fill="#3A3D6A"/>
<path transform="translate(247,205)" d="m0 0 6 1 6 3-3 3-7-3 1-3z" fill="#3A4370"/>
<path transform="translate(228,181)" d="m0 0 3 1 1 6-5 1-1-7z" fill="#393C6A"/>
<path transform="translate(259,662)" d="m0 0 4 1-2 6-3 2v-2l-4-1 3-1z" fill="#3F4369"/>
<path transform="translate(225,660)" d="m0 0 6 1 5 1v4l-6-1-5-3z" fill="#393968"/>
<path transform="translate(274,549)" d="m0 0 18 1v1l-16 1-5-1z" fill="#3D446D"/>
<path transform="translate(440,523)" d="m0 0 4 1 4 4h-3l-6-1-2 2-3-1z" fill="#35558A"/>
<path transform="translate(247,517)" d="m0 0 4 1-4 5-6-1-3-4 5 2 2 1z" fill="#325F98"/>
<path transform="translate(484,416)" d="m0 0 2 2v9l-2 8h-1v-18z" fill="#373365"/>
<path transform="translate(211,376)" d="m0 0 2 1-2 5-5 5-1-3z" fill="#3E3F67"/>
<path transform="translate(369,364)" d="m0 0 5 2 4 5-4 1-5-5z" fill="#3E446B"/>
<path transform="translate(230,357)" d="m0 0 2 1-2 4-6 5-1-4z" fill="#3D436D"/>
<path transform="translate(88,356)" d="m0 0 6 2v2h-2l2 4v3l-4-1v-8h-2z" fill="#494C72"/>
<path transform="translate(483,319)" d="m0 0 5 4 3 2-2 4-5-5-2-4z" fill="#404569"/>
<path transform="translate(520,273)" d="m0 0 3 1 3 4-1 2-3-2 3 4-3 1-4-7 2-2z" fill="#3D426B"/>
<path transform="translate(1643,237)" d="m0 0 3 3 5 11-1 4-5-11z" fill="#393765"/>
<path transform="translate(306,654)" d="m0 0h3l-2 11-2 2v-11z" fill="#363265"/>
<path transform="translate(345,646)" d="m0 0h3l1 9-3 1-1-1-1-8z" fill="#3F4369"/>
<path transform="translate(285,592)" d="m0 0 1 3-8 7-3-1 5-5h3z" fill="#3D4D76"/>
<path transform="translate(520,560)" d="m0 0h2v4l-4 4-3 5h-2l2-5z" fill="#3E436B"/>
<path transform="translate(394,486)" d="m0 0 3 1-2 6-3 4-2-3z" fill="#3C4C76"/>
<path transform="translate(535,447)" d="m0 0 5 1v2l6-2 3 1-3 2h-10z" fill="#424568"/>
<path transform="translate(517,356)" d="m0 0h3l1 3-4 5-5-2 3-1z" fill="#3B3F6A"/>
<path transform="translate(488,337)" d="m0 0 2 2-3 7 1 2-4-1v-6z" fill="#3D466F"/>
<path transform="translate(263,321)" d="m0 0 4 1 6 4v2h3v2l-6-2-7-5z" fill="#393C6A"/>
<path transform="translate(1455,658)" d="m0 0h6v2l4 1h-15l1-2z" fill="#383868"/>
<path transform="translate(351,622)" d="m0 0 5 1-3 1v2l-6 2-1-3 1-2z" fill="#3B3D68"/>
<path transform="translate(306,592)" d="m0 0h2l2 7 3 3-4-1-5-5 1-3z" fill="#3C4E79"/>
<path transform="translate(193,502)" d="m0 0 5 1 3 4v5h-2l-3-6z" fill="#3B3D68"/>
<path transform="translate(307,477)" d="m0 0h1l3 14-1 4-4-10z" fill="#40476C"/>
<path transform="translate(185,399)" d="m0 0 2 4-1 10-3-1z" fill="#3E436B"/>
<path transform="translate(124,365)" d="m0 0h3l-1 5-1 2-4 1-1-2z" fill="#3C416B"/>
<path transform="translate(374,355)" d="m0 0 9 3 7 1v1h-11l-5-2z" fill="#3A3C6A"/>
<path transform="translate(346,348)" d="m0 0 5 1 4 2 1 5-9-5z" fill="#3A3C6A"/>
<path transform="translate(367,331)" d="m0 0h3l-1 4-2 6-1-3h-2l-1-3z" fill="#3A3866"/>
<path transform="translate(551,324)" d="m0 0h2l2 6-3 3-3-4v-2h2z" fill="#3E4269"/>
<path transform="translate(175,234)" d="m0 0h7v4l-6 1-3-1v-3z" fill="#373D6E"/>
<path transform="translate(414,635)" d="m0 0 3 1 1 4-5 3-1-7z" fill="#3F4369"/>
<path transform="translate(114,556)" d="m0 0h2l-2 4-4 3h-3l1-4z" fill="#FDFDFD"/>
<path transform="translate(285,479)" d="m0 0h2l-1 9-3 7-1-3z" fill="#3A4B79"/>
<path transform="translate(318,480)" d="m0 0h2l6 12-1 2-7-10z" fill="#3D4670"/>
<path transform="translate(384,445)" d="m0 0 1 4h3l1 6-3-1-3 1z" fill="#395382"/>
<path transform="translate(320,434)" d="m0 0h7l-3 1 1 3-2 2 2 2h-2l-1 2-2-7z" fill="#3B507C"/>
<path transform="translate(313,415)" d="m0 0 1 3-3 6-4-1 2-5z" fill="#383D6C"/>
<path transform="translate(484,411)" d="m0 0h1v5l-1 2v8h-2l-1-10 3-1z" fill="#40456A"/>
<path transform="translate(130,351)" d="m0 0h2v2l2 1-3 5h-2v-2l-2-1z" fill="#3D446E"/>
<path transform="translate(198,232)" d="m0 0 4 1-4 3-6 2-2-3z" fill="#3A4472"/>
<path transform="translate(393,697)" d="m0 0 4 1v7l-4-1-1-6z" fill="#383565"/>
<path transform="translate(486,562)" d="m0 0 5 1 2 4-3 1-5-3z" fill="#3C3F69"/>
<path transform="translate(482,539)" d="m0 0 8 3-1 2h-6l-3-3z" fill="#3F4167"/>
<path transform="translate(403,498)" d="m0 0m-3 1 3 1-5 5-3 2-1-3z" fill="#3C4670"/>
<path transform="translate(390,495)" d="m0 0 2 1-2 6-1 2-3-1 2-5z" fill="#3E436C"/>
<path transform="translate(230,335)" d="m0 0 11 2 3 2h-10l-4-2z" fill="#393D6A"/>
<path transform="translate(110,288)" d="m0 0 9 1-1 3-8-1z" fill="#393968"/>
<path transform="translate(325,604)" d="m0 0 4 1 2 2 1 6-3 1-2-7-2-1z" fill="#30629C"/>
<path transform="translate(153,596)" d="m0 0h3l-1 4-3 3-3-1 2-4z" fill="#3A416E"/>
<path transform="translate(180,393)" d="m0 0 4 2 1 2v6h-2l-3-7z" fill="#3A3966"/>
<path transform="translate(392,377)" d="m0 0 7 6 2 3h-4l-5-6z" fill="#3D3E66"/>
<path transform="translate(320,326)" d="m0 0h2l-1 3-7 1-4-2 1-1z" fill="#3F4167"/>
<path transform="translate(480,317)" d="m0 0h3l-1 4h-2l-1 4-3-1 2-4z" fill="#3A406D"/>
<path transform="translate(460,281)" d="m0 0 4 1 5 6-3 1-6-6z" fill="#3F4269"/>
<path transform="translate(104,238)" d="m0 0 2 1-3 3v6l-1-2-5 1v-3z" fill="#3D436C"/>
<path transform="translate(182,619)" d="m0 0 4 1-2 4-4 2v-4z" fill="#383868"/>
<path transform="translate(254,555)" d="m0 0 3 1 3 7-1 3-5-8z" fill="#3C3C66"/>
<path transform="translate(458,541)" d="m0 0 2 1-2 5-1 2h-3v-5z" fill="#393968"/>
<path transform="translate(304,530)" d="m0 0h5l-1 8h-3z" fill="#3A4673"/>
<path transform="translate(465,526)" d="m0 0 3 3-3 5h-2l-1-4z" fill="#3E3E67"/>
<path transform="translate(408,477)" d="m0 0 1 2 1 9h-3l-1-2v-8z" fill="#3F436A"/>
<path transform="translate(275,454)" d="m0 0 2 1-1 3-5 3-3-1 5-5z" fill="#373E70"/>
<path transform="translate(67,447)" d="m0 0 4 1v3h-9l2-3z" fill="#414367"/>
<path transform="translate(263,434)" d="m0 0h8l3 3-3 1-6-1v-2z" fill="#373F70"/>
<path transform="translate(296,409)" d="m0 0 2 3v7l-4 1z" fill="#364072"/>
<path transform="translate(479,396)" d="m0 0 3 1 1 8-2 2v-3l-2-1z" fill="#373668"/>
<path transform="translate(473,380)" d="m0 0h4v11h-2l-3-10z" fill="#3D4871"/>
<path transform="translate(320,284)" d="m0 0 4 1 3 2 1 6-7-6z" fill="#3A517E"/>
<path transform="translate(199,239)" d="m0 0 5 1v4l-2 2-3-4z" fill="#3B3A66"/>
<path transform="translate(150,224)" d="m0 0h6l2 4-5 2z" fill="#3E446C"/>
<path transform="translate(363,658)" d="m0 0h4l4 2v3h-5z" fill="#3E476F"/>
<path transform="translate(375,636)" d="m0 0h4l3 4v2h-4l-1-2-4-2z" fill="#373768"/>
<path transform="translate(471,572)" d="m0 0 6 4 1 5-7-4z" fill="#3E446C"/>
<path transform="translate(346,547)" d="m0 0h10l1 3h-10z" fill="#3E4269"/>
<path transform="translate(344,415)" d="m0 0 2 1-12 8-1-3z" fill="#3D4069"/>
<path transform="translate(397,402)" d="m0 0 2 3 1 2v7h-2l-2-9z" fill="#3B3D69"/>
<path transform="translate(100,399)" d="m0 0h5l2 4-4 1-3-2z" fill="#3F4067"/>
<path transform="translate(456,385)" d="m0 0 4 1-6 4-1 4h-2v-5z" fill="#335D93"/>
<path transform="translate(356,375)" d="m0 0 1 4 7 6h-3l-8-6 2-1z" fill="#39517F"/>
<path transform="translate(249,358)" d="m0 0h3l4 6 3 2-4 1-6-7z" fill="#3B4571"/>
<path transform="translate(220,353)" d="m0 0 2 1-2 4-5 2h-3l1-3 6-3z" fill="#3C3B66"/>
<path transform="translate(316,350)" d="m0 0h7l2 1-1 4-2-1v-2l-3 1-2 2z" fill="#30629E"/>
<path transform="translate(487,348)" d="m0 0h6l3 3-7 1v-2h-2z" fill="#383565"/>
<path transform="translate(488,315)" d="m0 0 3 1 3 5v2l-3 1-4-8z" fill="#3E446C"/>
<path transform="translate(110,315)" d="m0 0h2l2 4-1 4-4-2z" fill="#3D436C"/>
<path transform="translate(359,282)" d="m0 0h2l-2 4 1 5v3l-2-1v-2h-2l1-6z" fill="#315E98"/>
<path transform="translate(239,262)" d="m0 0 4 2v2l-8 2 1-5z" fill="#3F4167"/>
</svg>
